<svg width="238" height="74" viewBox="0 0 238 74" fill="none" xmlns="http://www.w3.org/2000/svg">
<path d="M14.5489 2.92705C14.8483 2.00574 16.1517 2.00574 16.4511 2.92705L18.7555 10.0193C18.8893 10.4313 19.2733 10.7102 19.7065 10.7102H27.1637C28.1324 10.7102 28.5352 11.9499 27.7515 12.5193L21.7185 16.9025C21.368 17.1571 21.2213 17.6085 21.3552 18.0205L23.6596 25.1127C23.959 26.034 22.9045 26.8001 22.1208 26.2307L16.0878 21.8475C15.7373 21.5929 15.2627 21.5929 14.9122 21.8475L8.87923 26.2307C8.09551 26.8001 7.04103 26.034 7.34039 25.1127L9.64478 18.0205C9.77866 17.6085 9.632 17.1571 9.28151 16.9025L3.24852 12.5193C2.46481 11.9499 2.86758 10.7102 3.83631 10.7102H11.2935C11.7267 10.7102 12.1107 10.4313 12.2445 10.0193L14.5489 2.92705Z" fill="#FFD100"/>
<path d="M45.6719 17.2188H38.8438V10.3906H45.6719V17.2188ZM40.8125 15.6562H43.7031V11.9844H40.8125V15.6562ZM49.7031 13.3125H51.625V14.9531H49.7031V19.5938H47.7031V9.21875H49.7031V13.3125ZM50.2188 23.1875H40.4844V18.5781H42.4688V21.5938H50.2188V23.1875ZM63.9669 11.3125H60.0763C60.1856 11.6719 60.4252 12.0104 60.795 12.3281C61.17 12.6458 61.6778 12.9193 62.3184 13.1484C62.9591 13.3776 63.7169 13.5312 64.5919 13.6094L63.8731 15.1719C62.5658 15.0417 61.4617 14.7422 60.5606 14.2734C59.6648 13.7995 59.0242 13.2057 58.6388 12.4922C58.2533 13.2057 57.6179 13.7995 56.7325 14.2734C55.8471 14.7422 54.7533 15.0417 53.4513 15.1719L52.7481 13.6094C53.6127 13.5312 54.3601 13.3776 54.9903 13.1484C55.6257 12.9193 56.1283 12.6458 56.4981 12.3281C56.8679 12.0104 57.1075 11.6719 57.2169 11.3125H53.3575V9.73438H63.9669V11.3125ZM65.1388 17.7344H52.17V16.1406H57.6544V14.2812H59.6231V16.1406H65.1388V17.7344ZM63.5606 23.4375H61.5763V20.3438H53.6075V18.75H63.5606V23.4375ZM77.5119 17.1562H73.3869V20.1875H78.9338V21.8125H65.9181V20.1875H71.4025V17.1562H67.4494V10.2188H77.4025V11.8125H69.4494V15.5781H77.5119V17.1562Z" fill="black"/>
<path d="M24.0547 61.2109L31.2266 50.0312H35.6562V61.1641H37.8125V64H35.6562V67H32.3047V64H24.0547V61.2109ZM32.3516 61.1641V53.8984H32.1875L27.6172 61.0234V61.1641H32.3516ZM41.8203 67.2109C41.4609 67.2109 41.1289 67.1211 40.8242 66.9414C40.5195 66.7617 40.2773 66.5234 40.0977 66.2266C39.9258 65.9219 39.8438 65.5938 39.8516 65.2422C39.8438 64.8906 39.9258 64.5664 40.0977 64.2695C40.2773 63.9727 40.5195 63.7383 40.8242 63.5664C41.1289 63.3867 41.4609 63.2969 41.8203 63.2969C42.1562 63.2969 42.4727 63.3867 42.7695 63.5664C43.0742 63.7383 43.3164 63.9727 43.4961 64.2695C43.6758 64.5664 43.7656 64.8906 43.7656 65.2422C43.7656 65.5938 43.6758 65.9219 43.4961 66.2266C43.3164 66.5234 43.0742 66.7617 42.7695 66.9414C42.4727 67.1211 42.1562 67.2109 41.8203 67.2109ZM52.2031 67.2344C50.9297 67.2344 49.7852 67.0273 48.7695 66.6133C47.7617 66.1992 46.9727 65.6289 46.4023 64.9023C45.832 64.168 45.5469 63.3438 45.5469 62.4297C45.5469 61.7344 45.7109 61.0859 46.0391 60.4844C46.3672 59.8828 46.8164 59.3867 47.3867 58.9961C47.9648 58.5977 48.6016 58.3438 49.2969 58.2344V58.1172C48.6953 58 48.1602 57.7656 47.6914 57.4141C47.2227 57.0547 46.8555 56.6094 46.5898 56.0781C46.332 55.5469 46.2031 54.9766 46.2031 54.3672C46.2031 53.4922 46.4609 52.7109 46.9766 52.0234C47.4922 51.3281 48.207 50.7852 49.1211 50.3945C50.0352 49.9961 51.0625 49.7969 52.2031 49.7969C53.3438 49.7969 54.3711 49.9961 55.2852 50.3945C56.1992 50.7852 56.9141 51.3281 57.4297 52.0234C57.9531 52.7109 58.2188 53.4922 58.2266 54.3672C58.2188 54.9844 58.082 55.5586 57.8164 56.0898C57.5508 56.6133 57.1836 57.0547 56.7148 57.4141C56.2461 57.7656 55.7188 58 55.1328 58.1172V58.2344C55.8203 58.3438 56.4453 58.5977 57.0078 58.9961C57.5781 59.3867 58.0273 59.8828 58.3555 60.4844C58.6914 61.0859 58.8594 61.7344 58.8594 62.4297C58.8594 63.3438 58.5742 64.168 58.0039 64.9023C57.4336 65.6289 56.6406 66.1992 55.625 66.6133C54.6172 67.0273 53.4766 67.2344 52.2031 67.2344ZM52.2031 64.5391C52.7891 64.5391 53.3047 64.4375 53.75 64.2344C54.2031 64.0234 54.5547 63.7305 54.8047 63.3555C55.0547 62.9805 55.1797 62.5547 55.1797 62.0781C55.1797 61.5938 55.0508 61.1562 54.793 60.7656C54.543 60.375 54.1914 60.0703 53.7383 59.8516C53.2852 59.6328 52.7734 59.5234 52.2031 59.5234C51.6328 59.5234 51.1172 59.6328 50.6562 59.8516C50.2031 60.0703 49.8477 60.375 49.5898 60.7656C49.3398 61.1562 49.2188 61.5938 49.2266 62.0781C49.2188 62.5547 49.3359 62.9805 49.5781 63.3555C49.8281 63.7305 50.1797 64.0234 50.6328 64.2344C51.0859 64.4375 51.6094 64.5391 52.2031 64.5391ZM52.2031 57.0391C52.6953 57.0391 53.1367 56.9414 53.5273 56.7461C53.9258 56.543 54.2344 56.2656 54.4531 55.9141C54.6719 55.5625 54.7812 55.1641 54.7812 54.7188C54.7812 54.2891 54.6719 53.9023 54.4531 53.5586C54.2344 53.2148 53.9297 52.9492 53.5391 52.7617C53.1484 52.5664 52.7031 52.4688 52.2031 52.4688C51.7031 52.4688 51.2578 52.5625 50.8672 52.75C50.4844 52.9375 50.1836 53.2031 49.9648 53.5469C49.7539 53.8906 49.6484 54.2812 49.6484 54.7188C49.6484 55.1641 49.7578 55.5625 49.9766 55.9141C50.1953 56.2656 50.4961 56.543 50.8789 56.7461C51.2695 56.9414 51.7109 57.0391 52.2031 57.0391Z" fill="black"/>
<path d="M100 6.5V72.5" stroke="#707173"/>
<path d="M165.16 66H161.621V52.3828H161.527L157.637 54.8203V51.7031L161.832 49.0312H165.16V66ZM175.684 66.2344C174.27 66.2344 173.051 65.8945 172.027 65.2148C171.012 64.5273 170.23 63.5312 169.684 62.2266C169.137 60.9219 168.863 59.3516 168.863 57.5156C168.863 55.6797 169.137 54.1094 169.684 52.8047C170.23 51.5 171.012 50.5078 172.027 49.8281C173.051 49.1406 174.27 48.7969 175.684 48.7969C177.09 48.7969 178.305 49.1406 179.328 49.8281C180.352 50.5078 181.137 51.5039 181.684 52.8164C182.23 54.1211 182.504 55.6875 182.504 57.5156C182.504 59.3594 182.23 60.9336 181.684 62.2383C181.137 63.543 180.352 64.5352 179.328 65.2148C178.312 65.8945 177.098 66.2344 175.684 66.2344ZM175.684 63.3281C176.34 63.3281 176.906 63.1172 177.383 62.6953C177.867 62.2734 178.238 61.6367 178.496 60.7852C178.762 59.9336 178.895 58.8828 178.895 57.6328C178.895 55.6875 178.613 54.2109 178.051 53.2031C177.488 52.1875 176.699 51.6797 175.684 51.6797C174.668 51.6797 173.879 52.1875 173.316 53.2031C172.754 54.2109 172.473 55.6875 172.473 57.6328C172.473 58.8828 172.602 59.9336 172.859 60.7852C173.125 61.6367 173.496 62.2734 173.973 62.6953C174.457 63.1172 175.027 63.3281 175.684 63.3281ZM191.527 66.2344C190.113 66.2344 188.895 65.8945 187.871 65.2148C186.855 64.5273 186.074 63.5312 185.527 62.2266C184.98 60.9219 184.707 59.3516 184.707 57.5156C184.707 55.6797 184.98 54.1094 185.527 52.8047C186.074 51.5 186.855 50.5078 187.871 49.8281C188.895 49.1406 190.113 48.7969 191.527 48.7969C192.934 48.7969 194.148 49.1406 195.172 49.8281C196.195 50.5078 196.98 51.5039 197.527 52.8164C198.074 54.1211 198.348 55.6875 198.348 57.5156C198.348 59.3594 198.074 60.9336 197.527 62.2383C196.98 63.543 196.195 64.5352 195.172 65.2148C194.156 65.8945 192.941 66.2344 191.527 66.2344ZM191.527 63.3281C192.184 63.3281 192.75 63.1172 193.227 62.6953C193.711 62.2734 194.082 61.6367 194.34 60.7852C194.605 59.9336 194.738 58.8828 194.738 57.6328C194.738 55.6875 194.457 54.2109 193.895 53.2031C193.332 52.1875 192.543 51.6797 191.527 51.6797C190.512 51.6797 189.723 52.1875 189.16 53.2031C188.598 54.2109 188.316 55.6875 188.316 57.6328C188.316 58.8828 188.445 59.9336 188.703 60.7852C188.969 61.6367 189.34 62.2734 189.816 62.6953C190.301 63.1172 190.871 63.3281 191.527 63.3281ZM205.238 57.5156C204.41 57.5156 203.703 57.3281 203.117 56.9531C202.531 56.5703 202.086 56.0391 201.781 55.3594C201.477 54.6797 201.324 53.8906 201.324 52.9922C201.324 52.0938 201.477 51.3008 201.781 50.6133C202.094 49.9258 202.543 49.3945 203.129 49.0195C203.723 48.6367 204.426 48.4453 205.238 48.4453C206.074 48.4453 206.781 48.6367 207.359 49.0195C207.945 49.3945 208.387 49.9258 208.684 50.6133C208.988 51.293 209.145 52.0859 209.152 52.9922C209.145 53.8984 208.988 54.6914 208.684 55.3711C208.379 56.0508 207.934 56.5781 207.348 56.9531C206.762 57.3281 206.059 57.5156 205.238 57.5156ZM205.238 55.4297C205.73 55.4297 206.102 55.2109 206.352 54.7734C206.609 54.3359 206.746 53.7422 206.762 52.9922C206.746 52.2266 206.613 51.625 206.363 51.1875C206.121 50.75 205.746 50.5312 205.238 50.5312C204.746 50.5312 204.367 50.7578 204.102 51.2109C203.844 51.6562 203.715 52.25 203.715 52.9922C203.715 53.7344 203.848 54.3281 204.113 54.7734C204.379 55.2109 204.754 55.4297 205.238 55.4297ZM216.676 66.5625C215.855 66.5625 215.152 66.375 214.566 66C213.98 65.6172 213.535 65.0859 213.23 64.4062C212.934 63.7266 212.785 62.9375 212.785 62.0391C212.785 61.1406 212.938 60.3477 213.242 59.6602C213.555 58.9727 214.004 58.4414 214.59 58.0664C215.176 57.6836 215.871 57.4922 216.676 57.4922C217.512 57.4922 218.223 57.6836 218.809 58.0664C219.395 58.4414 219.84 58.9727 220.145 59.6602C220.449 60.3398 220.605 61.1328 220.613 62.0391C220.605 62.9453 220.449 63.7383 220.145 64.418C219.84 65.0977 219.391 65.625 218.797 66C218.211 66.375 217.504 66.5625 216.676 66.5625ZM216.676 64.4766C217.176 64.4766 217.555 64.2617 217.812 63.832C218.07 63.4023 218.207 62.8047 218.223 62.0391C218.207 61.2734 218.074 60.6758 217.824 60.2461C217.574 59.8086 217.191 59.5938 216.676 59.6016C216.199 59.6016 215.828 59.8242 215.562 60.2695C215.305 60.7148 215.176 61.3047 215.176 62.0391C215.176 62.7891 215.305 63.3828 215.562 63.8203C215.828 64.2578 216.199 64.4766 216.676 64.4766ZM215.434 49.0312H218.059L206.387 66H203.762L215.434 49.0312Z" fill="black"/>
<path d="M192.391 18.3594H186.875V22.4531H184.906V18.3594H179.422V16.7344H192.391V18.3594ZM191.203 11.4219H186.938C187.016 11.8594 187.25 12.2865 187.641 12.7031C188.031 13.1198 188.573 13.4818 189.266 13.7891C189.958 14.0964 190.771 14.3021 191.703 14.4062L190.984 15.9688C189.812 15.8333 188.792 15.5417 187.922 15.0938C187.057 14.6458 186.385 14.0859 185.906 13.4141C185.432 14.0859 184.758 14.6458 183.883 15.0938C183.013 15.5417 181.984 15.8333 180.797 15.9688L180.078 14.4062C181.01 14.3021 181.823 14.0964 182.516 13.7891C183.214 13.4818 183.76 13.1198 184.156 12.7031C184.552 12.2865 184.792 11.8594 184.875 11.4219H180.594V9.85938H184.906V8.23438H186.875V9.85938H191.203V11.4219ZM198.404 11.5625C198.404 12.1094 198.527 12.6406 198.772 13.1562C199.016 13.6719 199.389 14.1354 199.889 14.5469C200.394 14.9583 201.019 15.276 201.764 15.5L200.811 17.0469C200.035 16.8281 199.363 16.4896 198.795 16.0312C198.227 15.5677 197.777 15.0182 197.443 14.3828C197.121 15.0703 196.673 15.6641 196.1 16.1641C195.532 16.6589 194.847 17.0312 194.045 17.2812L193.076 15.7188C193.821 15.5 194.443 15.1771 194.943 14.75C195.443 14.3177 195.813 13.8281 196.053 13.2812C196.298 12.7344 196.42 12.1615 196.42 11.5625V11.4531H193.561V9.89062H196.42V8.3125H198.436V9.89062H201.279V11.4531H198.404V11.5625ZM205.154 18.7812H203.17V13.9844H200.811V12.375H203.17V8.23438H205.154V18.7812ZM205.498 22.1875H195.717V17.875H197.717V20.5938H205.498V22.1875ZM216.041 12.0938C216.041 12.8802 216.174 13.6536 216.44 14.4141C216.711 15.1693 217.114 15.849 217.651 16.4531C218.187 17.0573 218.838 17.5208 219.604 17.8438L218.526 19.4062C217.708 19.0625 217.007 18.5573 216.424 17.8906C215.841 17.224 215.382 16.4453 215.049 15.5547C214.721 16.5234 214.26 17.375 213.666 18.1094C213.073 18.8385 212.369 19.3906 211.557 19.7656L210.416 18.1875C211.177 17.849 211.825 17.3568 212.362 16.7109C212.903 16.0651 213.309 15.3411 213.58 14.5391C213.856 13.7318 213.994 12.9167 213.994 12.0938V11.2188H210.979V9.59375H219.01V11.2188H216.041V12.0938ZM222.432 22.4375H220.416V8.21875H222.432V22.4375ZM231.821 9.32812C231.821 9.90104 232.013 10.4661 232.399 11.0234C232.784 11.5755 233.352 12.0547 234.102 12.4609C234.852 12.8672 235.748 13.1354 236.789 13.2656L236.008 14.875C234.789 14.6979 233.729 14.3438 232.828 13.8125C231.933 13.276 231.245 12.6146 230.766 11.8281C230.292 12.6146 229.61 13.276 228.719 13.8125C227.828 14.3438 226.779 14.6979 225.571 14.875L224.774 13.2656C225.805 13.1354 226.696 12.8672 227.446 12.4609C228.196 12.0547 228.763 11.5755 229.149 11.0234C229.534 10.4661 229.727 9.90104 229.727 9.32812V8.64062H231.821V9.32812ZM237.243 17.5781H231.711V22.4375H229.743V17.5781H224.274V15.9531H237.243V17.5781Z" fill="black"/>
<path d="M169 12.8C169 12.1635 168.741 11.553 168.281 11.1029C167.821 10.6529 167.196 10.4 166.545 10.4H158.789L159.967 4.916C159.992 4.796 160.004 4.664 160.004 4.532C160.004 4.04 159.795 3.584 159.464 3.26L158.163 2L150.088 9.896C149.634 10.34 149.364 10.94 149.364 11.6V23.6C149.364 24.2365 149.622 24.847 150.083 25.2971C150.543 25.7471 151.167 26 151.818 26H162.864C163.882 26 164.754 25.4 165.122 24.536L168.828 16.076C168.939 15.8 169 15.512 169 15.2V12.8ZM142 26H146.909V11.6H142V26Z" fill="#FF7700"/>
</svg>
