<svg width="375" height="782" viewBox="0 0 375 782" fill="none" xmlns="http://www.w3.org/2000/svg">
<rect width="375" height="782" fill="white"/>
<path d="M54.5328 66.1758C56.9449 66.1758 58.7711 68.1289 59.1422 71.3125H61.9742V64.9453H64.7477V82.9141H61.9742V73.5391H59.1812C58.8883 76.957 57.023 79.0469 54.5328 79.0469C51.7789 79.0469 49.8062 76.5664 49.8258 72.582C49.8062 68.6562 51.7789 66.1758 54.5328 66.1758ZM54.5328 68.7148C53.3414 68.7148 52.5016 70.0234 52.5211 72.582C52.5016 75.1797 53.3414 76.4883 54.5328 76.4883C55.7633 76.4883 56.5445 75.1797 56.5445 72.582C56.5445 70.0234 55.7633 68.7148 54.5328 68.7148ZM81.9133 64.9453V82.9141H79.1203V75.8047H76.2687V73.5195H79.1203V70.9414H76.2883V68.6758H79.1203V64.9453H81.9133ZM75.4094 66.4102V73.4609H70.1555V76.6445C72.2258 76.6348 74.0812 76.5371 76.1906 76.2344L76.425 78.5195C73.7883 78.9297 71.5226 78.9688 68.7883 78.9688H67.3625V71.293H72.6555V68.6172H67.3039V66.4102H75.4094ZM92.0867 65.1602C96.1101 65.1797 98.6492 66.4883 98.6687 68.6758C98.6492 70.8242 96.1101 72.1133 92.0867 72.1133C88.1023 72.1133 85.5047 70.8242 85.5047 68.6758C85.5047 66.4883 88.1023 65.1797 92.0867 65.1602ZM92.0867 67.3086C89.7234 67.2891 88.4148 67.7383 88.4344 68.6758C88.4148 69.5547 89.7234 69.9844 92.0867 69.9844C94.4305 69.9844 95.7586 69.5547 95.7586 68.6758C95.7586 67.7383 94.4305 67.2891 92.0867 67.3086ZM98.3172 76.5078V82.6797H85.7976V76.5078H90.6609V75.1211H83.9226V72.8945H100.27V75.1211H93.4734V76.5078H98.3172ZM88.5516 78.7148V80.4336H95.5828V78.7148H88.5516ZM109.272 65.1797C113.452 65.1992 115.834 66.2734 115.854 68.2266C115.834 70.2188 113.452 71.293 109.272 71.293C105.092 71.293 102.69 70.2188 102.69 68.2266C102.69 66.2734 105.092 65.1992 109.272 65.1797ZM109.272 67.2305C106.752 67.2305 105.639 67.5625 105.639 68.2266C105.639 68.9883 106.752 69.2227 109.272 69.2422C111.83 69.2227 112.944 68.9883 112.944 68.2266C112.944 67.5625 111.83 67.2305 109.272 67.2305ZM117.455 72.0156V74.2422H101.108V72.0156H117.455ZM115.502 75.1016V79.8477H105.737V80.668H115.932V82.7773H102.963V77.8945H112.709V77.1328H102.963V75.1016H115.502ZM136.943 64.9648V70.3359H139.267V72.6211H136.943V78.3438H134.13V64.9648H136.943ZM133.271 66.7617V68.9492H122.646V66.7617H126.552V64.9453H129.365V66.7617H133.271ZM127.959 69.457C130.576 69.457 132.412 70.8828 132.412 72.9727C132.412 75.043 130.576 76.4297 127.959 76.4297C125.341 76.4297 123.466 75.043 123.486 72.9727C123.466 70.8828 125.341 69.457 127.959 69.457ZM127.959 71.6055C126.923 71.6055 126.22 72.0742 126.22 72.9727C126.22 73.8711 126.923 74.3008 127.959 74.3203C129.013 74.3008 129.736 73.8711 129.736 72.9727C129.736 72.0742 129.013 71.6055 127.959 71.6055ZM137.529 80.3359V82.582H125.185V77.3086H127.998V80.3359H137.529ZM155.027 64.9648V78.168H152.234V71.8594H149.226V75.4141H140.573V66.1367H143.405V68.7344H146.452V66.1367H149.226V69.6133H152.234V64.9648H155.027ZM155.398 80.3359V82.582H142.995V76.8398H145.847V80.3359H155.398ZM143.405 73.2266H146.452V70.8633H143.405V73.2266ZM172.095 64.9453V82.9141H169.262V64.9453H172.095ZM162.309 66.1758C165.024 66.1758 167.055 68.6562 167.075 72.582C167.055 76.5664 165.024 79.0469 162.309 79.0469C159.536 79.0469 157.505 76.5664 157.505 72.582C157.505 68.6562 159.536 66.1758 162.309 66.1758ZM162.309 68.7148C161.04 68.7148 160.22 70.0234 160.239 72.582C160.22 75.1797 161.04 76.4883 162.309 76.4883C163.54 76.4883 164.36 75.1797 164.36 72.582C164.36 70.0234 163.54 68.7148 162.309 68.7148ZM188.44 64.9453V71.6055H190.979V73.9297H188.44V82.9141H185.666V64.9453H188.44ZM183.284 66.4102V73.5H177.776V76.4492C180.178 76.4395 182.248 76.332 184.514 75.9609L184.768 78.1875C182.053 78.6953 179.553 78.793 176.506 78.793H174.983V71.3125H180.471V68.6562H174.963V66.4102H183.284ZM206.055 72.8555V75.0625H200.957V78.6172H207.793V80.9023H191.406V78.6172H198.184V75.0625H193.281V66.1562H205.938V68.3828H196.094V72.8555H206.055ZM222.554 65.9609C222.554 66.498 222.515 67.0059 222.456 67.5039H225.347V64.9648H228.14V75.1797H225.347V73.5977H221.519V71.3711H225.347V69.75H221.831C220.63 72.4844 218.042 74.3887 214.253 75.375L213.179 73.1875C217.017 72.25 219.107 70.3848 219.546 68.1875H214.175V65.9609H222.554ZM221.362 75.8828V82.8359H218.53V78.1094H215.132V75.8828H221.362ZM228.14 75.8828V82.8359H225.347V78.1094H222.105V75.8828H228.14ZM235.13 66.1758C237.542 66.1758 239.368 68.1289 239.739 71.3125H242.571V64.9453H245.345V82.9141H242.571V73.5391H239.778C239.485 76.957 237.62 79.0469 235.13 79.0469C232.376 79.0469 230.403 76.5664 230.423 72.582C230.403 68.6562 232.376 66.1758 235.13 66.1758ZM235.13 68.7148C233.938 68.7148 233.098 70.0234 233.118 72.582C233.098 75.1797 233.938 76.4883 235.13 76.4883C236.36 76.4883 237.141 75.1797 237.141 72.582C237.141 70.0234 236.36 68.7148 235.13 68.7148ZM268.094 78.5781V80.8633H251.707V78.5781H258.484V75.4336H253.387V66.0586H256.199V68.6953H263.523V66.0586H266.336V75.4336H261.258V78.5781H268.094ZM256.199 73.207H263.523V70.9023H256.199V73.207ZM284.068 64.9453V75.1992H281.275V72.1719H278.521V69.9453H281.275V68.8711H278.521V66.6445H281.275V64.9453H284.068ZM275.806 67.2109C275.787 69.5742 276.822 72.0156 279.771 73.0508L278.17 75.2773C276.324 74.584 275.093 73.2949 274.361 71.6641C273.57 73.3828 272.252 74.75 270.298 75.4727L268.716 73.2656C271.802 72.1719 272.935 69.6914 272.935 67.2109V65.6094H275.806V67.2109ZM275.826 76.2148C275.826 77.6406 276.353 79.0859 277.74 80.082C279.107 79.0273 279.634 77.5234 279.654 76.2148V75.8438H282.427V76.2148C282.427 78.0898 283.287 79.8281 285.767 80.5703L284.341 82.6211C282.662 82.0449 281.587 81 280.982 79.6328C280.367 81 279.332 82.1621 277.72 82.7773C276.099 82.1816 275.054 81.0586 274.459 79.6914C273.843 81 272.789 82.0449 271.177 82.6211L269.81 80.5703C272.212 79.7891 273.091 78.0117 273.091 76.2148V75.8438H275.826V76.2148ZM300.296 64.9453V71.4688H302.835V73.7539H300.296V82.9141H297.484V64.9453H300.296ZM295.179 66.5859V68.8516H289.573V76.293C291.986 76.2734 294.066 76.127 296.331 75.7461L296.624 78.0898C293.87 78.5586 291.39 78.6172 288.304 78.6172H286.761V66.5859H295.179ZM312.579 66.3711V67.6602H315.645V64.9648H318.438V77.9922H315.645V73.7344H312.579V75.2188H303.985V66.3711H312.579ZM306.778 68.5781V73.0312H309.825V68.5781H306.778ZM318.809 80.3359V82.582H306.407V76.7422H309.259V80.3359H318.809ZM312.579 71.5273H315.645V69.9062H312.579V71.5273ZM324.491 79.5156L322.752 85.1602H320.467L321.405 79.5156H324.491Z" fill="black"/>
<path d="M51.0074 94.3125V95.8555C50.9879 97.3301 50.9879 99.0293 50.5777 101.246L51.6324 101.109L51.7887 103.18C50.7828 103.385 49.6793 103.521 48.566 103.609V109.469H45.8707V103.785C44.7769 103.824 43.7613 103.834 42.9215 103.844L42.609 101.539C44.025 101.549 45.9586 101.539 47.9019 101.441C48.0094 100.865 48.0875 100.328 48.1559 99.8203L43.566 100.172L43.2926 97.9844L48.3316 97.7695C48.3414 97.3594 48.3512 96.959 48.3512 96.5781H43.7027V94.3125H51.0074ZM58.8004 92.9453V110.875H56.1441V92.9453H58.8004ZM55.0894 93.1992V110.074H52.4723V106.461H49.7379V104.371H52.4723V93.1992H55.0894ZM69.6574 95.2109C69.6379 97.7109 71.591 100.543 75.9465 101.266L74.716 103.59C71.5129 102.984 69.3059 101.285 68.1535 99.0781C66.9914 101.266 64.7746 102.975 61.591 103.59L60.3996 101.266C64.6574 100.523 66.6301 97.6719 66.6496 95.2109V93.9609H69.6574V95.2109ZM76.4543 106.441V108.746H60.0676V106.441H76.4543ZM91.9012 102.066V104.273H79.1277V94.1953H91.7644V96.4609H81.9988V98.1016H91.3348V100.289H81.9988V102.066H91.9012ZM93.6394 106.598V108.863H77.2527V106.598H93.6394ZM104.028 95.2109C104.008 97.7109 105.961 100.543 110.317 101.266L109.086 103.59C105.883 102.984 103.676 101.285 102.524 99.0781C101.362 101.266 99.1449 102.975 95.9613 103.59L94.7699 101.266C99.0277 100.523 101 97.6719 101.02 95.2109V93.9609H104.028V95.2109ZM110.825 106.441V108.746H94.4379V106.441H110.825ZM126.135 93.4727V95.0742C126.135 96.4414 126.135 97.8574 125.842 99.5664H127.932V101.773H121.174V102.77H126.193V107.711H116.213V108.531H126.818V110.68H113.42V105.719H123.4V104.898H113.4V102.77H118.361V101.773H111.682V99.5664H122.99C123.068 99.1465 123.127 98.7559 123.186 98.375L113.4 98.7461L113.088 96.6172L123.322 96.4414V95.6211H113.596V93.4727H126.135ZM143.867 92.9453V110.914H141.035V92.9453H143.867ZM134.082 94.1758C136.796 94.1758 138.828 96.6562 138.847 100.582C138.828 104.566 136.796 107.047 134.082 107.047C131.308 107.047 129.277 104.566 129.277 100.582C129.277 96.6562 131.308 94.1758 134.082 94.1758ZM134.082 96.7148C132.812 96.7148 131.992 98.0234 132.011 100.582C131.992 103.18 132.812 104.488 134.082 104.488C135.312 104.488 136.132 103.18 136.132 100.582C136.132 98.0234 135.312 96.7148 134.082 96.7148ZM165.483 92.9453V102.105H162.651V92.9453H165.483ZM165.483 102.77V107.73H155.971V108.57H165.913V110.777H153.179V105.719H162.69V104.938H153.139V102.77H165.483ZM160.893 94.0195V96.1484H159.507V99.3711C160.19 99.3223 160.864 99.2539 161.518 99.1758L161.636 101.168C158.081 101.773 154.038 101.852 150.952 101.852L150.659 99.6836L152.456 99.6641V96.1484H151.128V94.0195H160.893ZM155.151 99.6055L156.811 99.5469V96.1484H155.151V99.6055ZM183.938 106.559V108.844H167.551V106.559H171.086V102.301C169.748 101.451 168.938 100.182 168.938 98.6094C168.938 95.6797 171.809 93.7461 175.715 93.7461C179.621 93.7461 182.532 95.6797 182.532 98.6094C182.532 100.152 181.741 101.402 180.442 102.242V106.559H183.938ZM175.715 95.9531C173.274 95.9336 171.711 96.8906 171.731 98.6094C171.711 100.309 173.274 101.305 175.715 101.305C178.137 101.305 179.739 100.309 179.739 98.6094C179.739 96.8906 178.137 95.9336 175.715 95.9531ZM173.86 106.559H177.59V103.316C176.995 103.424 176.37 103.473 175.715 103.473C175.061 103.473 174.446 103.424 173.86 103.316V106.559ZM199.014 92.9648V98.3359H201.338V100.621H199.014V106.344H196.201V92.9648H199.014ZM195.342 94.7617V96.9492H184.717V94.7617H188.623V92.9453H191.436V94.7617H195.342ZM190.029 97.457C192.646 97.457 194.482 98.8828 194.482 100.973C194.482 103.043 192.646 104.43 190.029 104.43C187.412 104.43 185.537 103.043 185.557 100.973C185.537 98.8828 187.412 97.457 190.029 97.457ZM190.029 99.6055C188.994 99.6055 188.291 100.074 188.291 100.973C188.291 101.871 188.994 102.301 190.029 102.32C191.084 102.301 191.807 101.871 191.807 100.973C191.807 100.074 191.084 99.6055 190.029 99.6055ZM199.6 108.336V110.582H187.256V105.309H190.068V108.336H199.6ZM213.189 95.9336C213.189 98.1797 214.243 100.465 217.173 101.441L215.65 103.609C213.804 102.945 212.554 101.715 211.821 100.152C211.04 101.93 209.702 103.316 207.661 104.039L206.138 101.832C209.224 100.855 210.337 98.4336 210.337 95.9141V94.0586H213.189V95.9336ZM221.47 92.9648V106.148H218.677V98.9023H215.513V96.6562H218.677V92.9648H221.47ZM221.841 108.336V110.582H209.439V104.801H212.29V108.336H221.841ZM229.339 96.0312C229.319 97.9062 230.179 99.7324 232.444 100.68V93.2773H235.042V97.2031H236.253V92.9648H238.929V103.902H236.253V99.4688H235.042V103.336H232.444V100.973L231.116 102.906C229.651 102.34 228.645 101.354 228.011 100.113C227.366 101.598 226.282 102.828 224.651 103.492L223.147 101.324C225.706 100.191 226.585 98.0234 226.585 96.0312V94.0391H229.339V96.0312ZM232.737 104.078C236.546 104.078 239.007 105.367 239.026 107.477C239.007 109.586 236.546 110.895 232.737 110.875C228.929 110.895 226.468 109.586 226.487 107.477C226.468 105.367 228.929 104.078 232.737 104.078ZM232.737 106.188C230.53 106.168 229.28 106.598 229.3 107.477C229.28 108.355 230.53 108.766 232.737 108.766C234.944 108.766 236.175 108.355 236.194 107.477C236.175 106.598 234.944 106.168 232.737 106.188ZM255.704 92.9453V102.965H252.911V92.9453H255.704ZM244.473 93.9805V99.8984C247.11 99.8691 249.287 99.6836 251.543 99.1953L251.856 101.461C249.161 102.047 246.504 102.242 243.243 102.262H241.661V93.9805H244.473ZM255.704 103.668V110.66H243.633V103.668H255.704ZM246.387 105.855V108.473H252.95V105.855H246.387ZM272.908 92.9453V110.914H270.076V92.9453H272.908ZM263.123 94.1758C265.838 94.1758 267.869 96.6562 267.889 100.582C267.869 104.566 265.838 107.047 263.123 107.047C260.35 107.047 258.318 104.566 258.318 100.582C258.318 96.6562 260.35 94.1758 263.123 94.1758ZM263.123 96.7148C261.854 96.7148 261.033 98.0234 261.053 100.582C261.033 103.18 261.854 104.488 263.123 104.488C264.354 104.488 265.174 103.18 265.174 100.582C265.174 98.0234 264.354 96.7148 263.123 96.7148ZM282.203 96.7539C282.183 100.055 283.453 103.355 286.636 104.664L284.976 106.93C282.964 106.031 281.617 104.361 280.816 102.262C280.025 104.576 278.619 106.422 276.441 107.398L274.761 105.055C278.043 103.707 279.332 100.27 279.351 96.7539V94.2734H282.203V96.7539ZM290.093 92.9453V110.914H287.261V92.9453H290.093ZM306.732 93.7461V95.3281C306.732 96.8223 306.732 98.4141 306.38 100.445H308.607V102.652H301.946V106.324H299.134V102.652H292.22V100.445H303.529C303.861 98.6875 303.909 97.3008 303.919 95.9922H294.193V93.7461H306.732ZM306.966 108.336V110.582H294.056V104.703H296.868V108.336H306.966ZM325.792 106.559V108.844H309.405V106.559H312.94V102.301C311.602 101.451 310.792 100.182 310.792 98.6094C310.792 95.6797 313.663 93.7461 317.569 93.7461C321.475 93.7461 324.386 95.6797 324.386 98.6094C324.386 100.152 323.595 101.402 322.296 102.242V106.559H325.792ZM317.569 95.9531C315.128 95.9336 313.565 96.8906 313.585 98.6094C313.565 100.309 315.128 101.305 317.569 101.305C319.991 101.305 321.593 100.309 321.593 98.6094C321.593 96.8906 319.991 95.9336 317.569 95.9531ZM315.714 106.559H319.444V103.316C318.848 103.424 318.223 103.473 317.569 103.473C316.915 103.473 316.3 103.424 315.714 103.316V106.559ZM331.043 94.8594L330.75 104.684H327.957L327.664 94.8594H331.043ZM329.344 109.195C328.368 109.195 327.567 108.414 327.586 107.418C327.567 106.461 328.368 105.68 329.344 105.68C330.282 105.68 331.102 106.461 331.121 107.418C331.102 108.414 330.282 109.195 329.344 109.195Z" fill="#FF7700"/>
<path d="M43.667 298.724C43.667 297.833 44.0182 296.977 44.6433 296.347C45.2684 295.716 46.1163 295.362 47.0003 295.362H60.3337C60.7757 295.362 61.1995 295.539 61.512 295.855L69.8453 304.26C70.1579 304.576 70.3336 305.003 70.3337 305.449V325.623C70.3337 326.515 69.9825 327.37 69.3573 328C68.7322 328.631 67.8844 328.985 67.0003 328.985H47.0003C46.1163 328.985 45.2684 328.631 44.6433 328C44.0182 327.37 43.667 326.515 43.667 325.623V298.724ZM66.3103 305.449L60.3337 299.42V305.449H66.3103ZM57.0003 298.724H47.0003V325.623H67.0003V308.811H58.667C58.225 308.811 57.801 308.634 57.4885 308.319C57.1759 308.004 57.0003 307.576 57.0003 307.13V298.724ZM50.3337 313.855C50.3337 313.409 50.5093 312.981 50.8218 312.666C51.1344 312.351 51.5583 312.174 52.0003 312.174H62.0003C62.4424 312.174 62.8663 312.351 63.1788 312.666C63.4914 312.981 63.667 313.409 63.667 313.855C63.667 314.301 63.4914 314.728 63.1788 315.044C62.8663 315.359 62.4424 315.536 62.0003 315.536H52.0003C51.5583 315.536 51.1344 315.359 50.8218 315.044C50.5093 314.728 50.3337 314.301 50.3337 313.855ZM50.3337 320.579C50.3337 320.134 50.5093 319.706 50.8218 319.391C51.1344 319.075 51.5583 318.898 52.0003 318.898H62.0003C62.4424 318.898 62.8663 319.075 63.1788 319.391C63.4914 319.706 63.667 320.134 63.667 320.579C63.667 321.025 63.4914 321.453 63.1788 321.768C62.8663 322.083 62.4424 322.261 62.0003 322.261H52.0003C51.5583 322.261 51.1344 322.083 50.8218 321.768C50.5093 321.453 50.3337 321.025 50.3337 320.579Z" fill="white"/>
<rect x="20" y="156" width="335" height="98" rx="16" fill="#FF7700"/>
<path d="M108.908 177.771C108.908 179.275 109.783 180.725 111.752 181.34L110.822 182.693C109.503 182.256 108.58 181.408 108.047 180.314C107.507 181.572 106.543 182.557 105.121 183.035L104.178 181.668C106.256 180.971 107.145 179.316 107.158 177.607V176.473H108.908V177.771ZM114.24 175.816V178.729H115.922V180.178H114.24V183.199H112.49V175.816H114.24ZM110.166 183.445C112.736 183.445 114.363 184.334 114.363 185.852C114.363 187.383 112.736 188.258 110.166 188.258C107.541 188.258 105.9 187.383 105.9 185.852C105.9 184.334 107.541 183.445 110.166 183.445ZM110.166 184.812C108.525 184.812 107.637 185.168 107.65 185.852C107.637 186.562 108.525 186.891 110.166 186.891C111.779 186.891 112.641 186.562 112.641 185.852C112.641 185.168 111.779 184.812 110.166 184.812ZM126.27 175.816V178.619H127.951V180.055H126.27V182.803H124.52V175.816H126.27ZM122.428 176.596V177.977H118.627V180.943C120.876 180.93 122.114 180.848 123.508 180.561L123.686 181.928C122.127 182.283 120.692 182.338 117.93 182.338H116.877V176.596H122.428ZM126.27 183.322V188.107H118.135V183.322H126.27ZM119.858 184.703V186.74H124.547V184.703H119.858ZM142.044 175.816V188.258H140.28V175.816H142.044ZM138.311 177.115C138.311 180.889 136.985 184.02 132.542 186.125L131.626 184.73C134.839 183.213 136.254 181.244 136.534 178.482H132.296V177.115H138.311ZM154.99 182.488V183.883H143.601V182.488H148.427V181.586H145.023V178.168H151.859V177.402H144.995V176.049H153.609V179.426H146.759V180.246H153.841V181.586H150.163V182.488H154.99ZM153.677 184.594V188.203H151.913V185.961H144.872V184.594H153.677ZM165.254 176.541C165.254 179.795 163.203 182.051 159.553 183.062L158.869 181.709C161.549 180.984 163.094 179.617 163.394 177.936H159.539V176.541H165.254ZM169.287 175.83V182.789H167.551V180.205H165.336V178.783H167.551V175.83H169.287ZM169.287 183.281V188.107H161.043V183.281H169.287ZM162.752 184.648V186.74H167.564V184.648H162.752ZM174.809 177.977C174.809 179.357 175.492 180.711 177.147 181.367L176.203 182.707C175.157 182.283 174.426 181.518 173.989 180.574C173.524 181.654 172.744 182.55 171.582 183.035L170.653 181.682C172.403 180.93 173.114 179.385 173.114 177.977V176.541H174.809V177.977ZM181.522 175.83V183.363H179.867V180.273H178.828V183.295H177.201V176.021H178.828V178.852H179.867V175.83H181.522ZM181.522 183.91V188.258H179.785V185.305H172.922V183.91H181.522Z" fill="white"/>
<path d="M108.811 204.854V207.538H110.373V203.87H111.241V213.417H110.373V208.291H108.811V211.172H104.877V204.854H108.811ZM105.733 205.583V210.443H107.954V205.583H105.733ZM113.312 203.65V213.937H112.433V203.65H113.312ZM124.095 211.854V212.618H114.676V211.854H118.911V209.343H115.787V204.518H122.926V209.343H119.802V211.854H124.095ZM116.678 205.247V208.615H122.047V205.247H116.678ZM128.537 206.809C128.537 208.557 129.81 210.327 131.326 210.987L130.816 211.704C129.613 211.154 128.572 209.968 128.097 208.545C127.611 210.055 126.576 211.368 125.401 211.959L124.857 211.241C126.327 210.535 127.611 208.591 127.623 206.809V205.467H125.193V204.715H130.99V205.467H128.537V206.809ZM133.339 203.65V213.937H132.425V203.65H133.339ZM136.728 212.225L135.825 215.372H134.969L135.606 212.225H136.728ZM148.887 203.65V207.724H150.611V208.487H148.887V213.96H147.984V203.65H148.887ZM146.179 204.657V205.409H142.279V210.616C144.142 210.616 145.461 210.53 146.989 210.246L147.105 211.033C145.496 211.322 144.142 211.38 142.187 211.38H141.377V204.657H146.179ZM159.589 203.65V213.96H158.674V203.65H159.589ZM154.115 204.449C155.643 204.46 156.742 205.849 156.742 208.036C156.742 210.223 155.643 211.611 154.115 211.611C152.576 211.611 151.489 210.223 151.489 208.036C151.489 205.849 152.576 204.46 154.115 204.449ZM154.115 205.259C153.085 205.27 152.368 206.358 152.368 208.036C152.368 209.714 153.085 210.801 154.115 210.801C155.145 210.801 155.863 209.714 155.863 208.036C155.863 206.358 155.145 205.27 154.115 205.259ZM164.054 204.449C165.454 204.46 166.46 205.658 166.611 207.585H168.914V203.65H169.816V213.96H168.914V208.337H166.622C166.512 210.35 165.488 211.611 164.054 211.611C162.538 211.611 161.473 210.223 161.473 208.036C161.473 205.849 162.538 204.46 164.054 204.449ZM164.054 205.259C163.035 205.27 162.341 206.358 162.341 208.036C162.341 209.714 163.035 210.801 164.054 210.801C165.06 210.801 165.766 209.714 165.766 208.036C165.766 206.358 165.06 205.27 164.054 205.259ZM179.963 203.65V213.96H179.06V203.65H179.963ZM176.838 204.611V208.267H172.997V210.697C174.704 210.697 176.225 210.622 178.065 210.327L178.158 211.091C176.26 211.392 174.698 211.461 172.927 211.461H172.071V207.527H175.924V205.363H172.048V204.611H176.838ZM183.34 212.225L182.437 215.372H181.581L182.218 212.225H183.34ZM192.895 204.264C192.884 206.856 191.391 208.753 188.186 209.748L187.815 208.996C189.516 208.493 190.65 207.747 191.298 206.798L187.919 207.064L187.757 206.312L191.657 206.127C191.802 205.774 191.888 205.398 191.935 205.004H188.278V204.264H192.895ZM196.066 203.662V209.586H195.151V207.145H192.86V206.381H195.151V203.662H196.066ZM196.066 210.142V213.798H189.389V210.142H196.066ZM190.268 210.882V213.058H195.163V210.882H190.268ZM206.212 204.241V204.993H204.627V207.758H206.177V208.51H198.633V207.758H200.195V204.993H198.598V204.241H206.212ZM207.126 209.714V210.466H204.662V213.937H203.771V210.466H201.098V213.937H200.172V210.466H197.707V209.714H207.126ZM201.098 207.758H203.736V204.993H201.098V207.758ZM216.428 203.65V213.96H215.526V208.291H213.35V207.538H215.526V203.65H216.428ZM213.177 204.599V205.351H209.289V207.492H212.725V208.233H209.289V210.72C211.181 210.72 212.384 210.657 213.802 210.408L213.906 211.16C212.413 211.403 211.152 211.473 209.161 211.473H208.375V204.599H213.177ZM229.478 203.928V204.634H227.892V206.647H229.443V207.342H226.122V208.348H230.369V209.077H220.996V208.348H225.22V207.342H221.91V206.647H223.461V204.634H221.875V203.928H229.478ZM229.165 209.899V212.109H223.056V213.127H229.478V213.822H222.153V211.449H228.274V210.57H222.13V209.899H229.165ZM224.363 206.647H226.99V204.634H224.363V206.647ZM236.419 204.634V205.398H232.612V210.639C234.464 210.639 235.69 210.576 237.113 210.304L237.229 211.056C235.713 211.345 234.464 211.415 232.485 211.415H231.698V204.634H236.419ZM239.717 203.65V213.96H238.803V208.152H235.806V207.4H238.803V203.65H239.717ZM242.446 213.069C242.041 213.069 241.694 212.734 241.706 212.317C241.694 211.912 242.041 211.577 242.446 211.577C242.851 211.577 243.187 211.912 243.187 212.317C243.187 212.734 242.851 213.069 242.446 213.069ZM245.396 213.069C244.991 213.069 244.643 212.734 244.655 212.317C244.643 211.912 244.991 211.577 245.396 211.577C245.801 211.577 246.136 211.912 246.136 212.317C246.136 212.734 245.801 213.069 245.396 213.069ZM248.345 213.069C247.94 213.069 247.593 212.734 247.604 212.317C247.593 211.912 247.94 211.577 248.345 211.577C248.75 211.577 249.085 211.912 249.085 212.317C249.085 212.734 248.75 213.069 248.345 213.069ZM107.931 224.317C107.931 225.717 108.996 227.001 110.489 227.51L109.991 228.228C108.851 227.811 107.954 226.961 107.503 225.89C107.063 227.1 106.149 228.054 104.946 228.517L104.46 227.788C105.999 227.21 107.029 225.833 107.04 224.247V223.183H107.931V224.317ZM112.537 222.65V225.335H114.087V226.099H112.537V228.91H111.634V222.65H112.537ZM109.239 229.177C111.356 229.177 112.629 229.859 112.629 231.04C112.629 232.243 111.356 232.914 109.239 232.914C107.121 232.914 105.825 232.243 105.825 231.04C105.825 229.859 107.121 229.177 109.239 229.177ZM109.239 229.906C107.688 229.906 106.728 230.334 106.74 231.04C106.728 231.769 107.688 232.185 109.239 232.197C110.801 232.185 111.75 231.769 111.75 231.04C111.75 230.334 110.801 229.906 109.239 229.906ZM122.718 222.65V225.173H124.269V225.937H122.718V228.494H121.815V222.65H122.718ZM119.721 223.356V224.097H116.065V227.129C118.13 227.14 119.304 227.065 120.681 226.793L120.797 227.534C119.351 227.823 118.124 227.881 115.96 227.881H115.162V223.356H119.721ZM122.718 229.026V232.798H116.227V229.026H122.718ZM117.118 229.767V232.058H121.815V229.767H117.118ZM136.277 222.65V232.937H135.363V222.65H136.277ZM133.233 223.773C133.222 226.735 131.845 229.35 128.397 231.005L127.899 230.264C130.682 228.945 132.099 226.972 132.308 224.513H128.374V223.773H133.233ZM147.361 228.32V229.072H137.942V228.32H142.2V227.233H139.168V224.722H145.231V223.657H139.133V222.917H146.146V225.404H140.071V226.504H146.365V227.233H143.091V228.32H147.361ZM146.203 229.859V232.845H145.289V230.6H138.995V229.859H146.203ZM152.821 222.836C155.112 222.836 156.454 223.46 156.454 224.606C156.454 225.775 155.112 226.4 152.821 226.411C150.53 226.4 149.176 225.775 149.176 224.606C149.176 223.46 150.53 222.836 152.821 222.836ZM152.821 223.518C151.108 223.518 150.113 223.935 150.125 224.606C150.113 225.323 151.108 225.717 152.821 225.717C154.522 225.717 155.528 225.323 155.528 224.606C155.528 223.935 154.522 223.518 152.821 223.518ZM157.507 227.105V227.846H148.134V227.105H157.507ZM156.304 228.737V231.04H150.194V232.104H156.616V232.822H149.292V230.368H155.413V229.431H149.268V228.737H156.304ZM164.736 224.803C164.736 226.029 165.778 227.163 167.294 227.615L166.865 228.309C165.679 227.956 164.754 227.192 164.308 226.203C163.857 227.291 162.902 228.118 161.682 228.517L161.23 227.8C162.758 227.337 163.845 226.157 163.845 224.803V224.606H161.52V223.854H163.845V222.604H164.759V223.854H167.062V224.606H164.736V224.803ZM169.272 222.65V225.196H170.823V225.96H169.272V228.633H168.37V222.65H169.272ZM169.457 229.188V229.929H166.541C166.692 231.005 168.202 231.931 169.851 232.197L169.515 232.903C168.005 232.654 166.64 231.907 166.055 230.878C165.465 231.902 164.111 232.631 162.619 232.891L162.272 232.197C163.932 231.931 165.425 231.022 165.581 229.929H162.677V229.188H169.457ZM176.098 222.836C178.389 222.836 179.731 223.46 179.731 224.606C179.731 225.775 178.389 226.4 176.098 226.411C173.807 226.4 172.453 225.775 172.453 224.606C172.453 223.46 173.807 222.836 176.098 222.836ZM176.098 223.518C174.385 223.518 173.39 223.935 173.402 224.606C173.39 225.323 174.385 225.717 176.098 225.717C177.799 225.717 178.806 225.323 178.806 224.606C178.806 223.935 177.799 223.518 176.098 223.518ZM180.784 227.105V227.846H171.412V227.105H180.784ZM179.581 228.737V231.04H173.471V232.104H179.893V232.822H172.569V230.368H178.69V229.431H172.546V228.737H179.581ZM191.323 222.882V226.862H192.573V222.65H193.44V232.937H192.573V227.615H191.323V232.428H190.478V222.882H191.323ZM187.053 223.958V224.71H185.664V229.477C186.052 229.466 186.561 229.42 187.122 229.281L187.203 230.056C186.336 230.253 185.664 230.253 185.225 230.253H184.82V223.958H187.053ZM189.784 223.958V224.71H188.326V229.477C188.806 229.472 189.379 229.425 190.004 229.246L190.085 230.021C189.228 230.253 188.523 230.253 187.921 230.253H187.504V223.958H189.784Z" fill="#FFF5EB"/>
<path d="M61.5002 216.666C69.3242 216.666 75.6668 210.324 75.6668 202.5C75.6668 194.676 69.3242 188.333 61.5002 188.333C53.6762 188.333 47.3335 194.676 47.3335 202.5C47.3335 210.324 53.6762 216.666 61.5002 216.666Z" stroke="white" stroke-width="2.88889" stroke-linejoin="round"/>
<path d="M66.2137 196.952C65.0073 195.746 63.3406 195 61.4996 195C59.6587 195 57.9921 195.746 56.7856 196.952" stroke="white" stroke-width="2.88889" stroke-linecap="round" stroke-linejoin="round"/>
<path d="M71.6851 212.684L78.7561 219.755" stroke="white" stroke-width="2.88889" stroke-linecap="round" stroke-linejoin="round"/>
<rect x="20" y="270" width="335" height="98" rx="16" fill="#FF7700"/>
<path d="M108.908 291.771C108.908 293.275 109.783 294.725 111.752 295.34L110.822 296.693C109.503 296.256 108.58 295.408 108.047 294.314C107.507 295.572 106.543 296.557 105.121 297.035L104.178 295.668C106.256 294.971 107.145 293.316 107.158 291.607V290.473H108.908V291.771ZM114.24 289.816V292.729H115.922V294.178H114.24V297.199H112.49V289.816H114.24ZM110.166 297.445C112.736 297.445 114.363 298.334 114.363 299.852C114.363 301.383 112.736 302.258 110.166 302.258C107.541 302.258 105.9 301.383 105.9 299.852C105.9 298.334 107.541 297.445 110.166 297.445ZM110.166 298.812C108.525 298.812 107.637 299.168 107.65 299.852C107.637 300.562 108.525 300.891 110.166 300.891C111.779 300.891 112.641 300.562 112.641 299.852C112.641 299.168 111.779 298.812 110.166 298.812ZM126.27 289.816V292.619H127.951V294.055H126.27V296.803H124.52V289.816H126.27ZM122.428 290.596V291.977H118.627V294.943C120.876 294.93 122.114 294.848 123.508 294.561L123.686 295.928C122.127 296.283 120.692 296.338 117.93 296.338H116.877V290.596H122.428ZM126.27 297.322V302.107H118.135V297.322H126.27ZM119.858 298.703V300.74H124.547V298.703H119.858ZM142.974 299.387V300.809H131.585V299.387H136.384V297.09H132.788V290.609H134.538V292.537H139.966V290.609H141.702V297.09H138.12V299.387H142.974ZM134.538 295.695H139.966V293.932H134.538V295.695ZM153.868 290.896V292.072C153.868 293.631 153.868 295.381 153.363 298.02L151.613 297.842C152.084 295.49 152.105 293.74 152.118 292.277H144.79V290.896H153.868ZM154.962 299.318V300.74H143.615V299.318H147.675V295.039H149.411V299.318H154.962ZM160.347 292.633C160.347 294.971 161.291 297.24 163.369 298.143L162.302 299.537C160.921 298.86 159.999 297.623 159.486 296.092C158.939 297.719 157.982 299.052 156.56 299.756L155.466 298.334C157.599 297.377 158.57 294.971 158.584 292.633V290.773H160.347V292.633ZM166.144 289.816V302.285H164.421V295.135H161.974V293.727H164.421V289.816H166.144ZM177.899 290.541V291.936H175.424C175.438 293.392 176.299 294.882 178.323 295.531L177.434 296.885C176.053 296.44 175.103 295.552 174.563 294.438C174.009 295.654 173.018 296.618 171.569 297.09L170.639 295.75C172.697 295.087 173.633 293.494 173.66 291.936H171.117V290.541H177.899ZM180.701 289.816V292.838H182.383V294.287H180.701V297.322H178.951V289.816H180.701ZM180.701 297.855V302.258H178.951V299.236H172.321V297.855H180.701ZM187.563 291.512C187.549 293.18 188.411 294.711 190.407 295.326L189.491 296.693C188.151 296.229 187.242 295.367 186.729 294.246C186.169 295.545 185.164 296.57 183.667 297.076L182.751 295.682C184.883 294.998 185.786 293.33 185.799 291.594V290.459H187.563V291.512ZM193.346 289.816V297.104H191.61V293.521H189.272V292.1H191.61V289.816H193.346ZM189.094 297.432C191.747 297.432 193.374 298.32 193.387 299.852C193.374 301.383 191.747 302.258 189.094 302.258C186.442 302.258 184.815 301.383 184.815 299.852C184.815 298.32 186.442 297.432 189.094 297.432ZM189.094 298.785C187.44 298.785 186.551 299.141 186.551 299.852C186.551 300.535 187.44 300.904 189.094 300.904C190.749 300.904 191.651 300.535 191.651 299.852C191.651 299.141 190.749 298.785 189.094 298.785Z" fill="white"/>
<path d="M113 317.65V327.937H112.085V317.65H113ZM109.956 318.773C109.945 321.735 108.568 324.35 105.12 326.005L104.622 325.264C107.405 323.945 108.822 321.972 109.031 319.513H105.096V318.773H109.956ZM124.083 323.32V324.072H114.664V323.32H118.923V322.233H115.891V319.722H121.954V318.657H115.856V317.917H122.868V320.404H116.794V321.504H123.088V322.233H119.814V323.32H124.083ZM122.926 324.859V327.845H122.012V325.6H115.717V324.859H122.926ZM129.544 317.836C131.835 317.836 133.177 318.46 133.177 319.606C133.177 320.775 131.835 321.4 129.544 321.411C127.253 321.4 125.899 320.775 125.899 319.606C125.899 318.46 127.253 317.836 129.544 317.836ZM129.544 318.518C127.831 318.518 126.836 318.935 126.848 319.606C126.836 320.323 127.831 320.717 129.544 320.717C131.245 320.717 132.251 320.323 132.251 319.606C132.251 318.935 131.245 318.518 129.544 318.518ZM134.23 322.105V322.846H124.857V322.105H134.23ZM133.027 323.737V326.04H126.917V327.104H133.339V327.822H126.014V325.368H132.136V324.431H125.991V323.737H133.027ZM145.995 317.662V321.052H147.546V321.816H145.995V325.368H145.093V317.662H145.995ZM144.109 318.923V319.664H137.976V318.923H140.591V317.662H141.494V318.923H144.109ZM141.043 320.231C142.512 320.231 143.507 320.983 143.519 322.152C143.507 323.309 142.512 324.049 141.043 324.049C139.562 324.049 138.555 323.309 138.566 322.152C138.555 320.983 139.562 320.231 141.043 320.231ZM141.043 320.948C140.071 320.948 139.423 321.423 139.434 322.152C139.423 322.881 140.071 323.343 141.043 323.332C142.003 323.343 142.651 322.881 142.663 322.152C142.651 321.423 142.003 320.948 141.043 320.948ZM146.47 326.954V327.717H139.562V324.755H140.452V326.954H146.47ZM156.94 317.65V327.937H156.061V317.65H156.94ZM154.834 317.905V327.405H153.966V322.348H151.721V321.585H153.966V317.905H154.834ZM152.416 318.923V319.675H149.419V324.697C150.9 324.692 151.837 324.628 152.948 324.385L153.041 325.16C151.849 325.403 150.842 325.449 149.187 325.461H148.539V318.923H152.416ZM170.649 325.854V326.618H161.23V325.854H165.465V323.343H162.341V318.518H169.481V323.343H166.356V325.854H170.649ZM163.232 319.247V322.615H168.601V319.247H163.232ZM174.165 318.449C175.681 318.46 176.757 319.849 176.769 322.036C176.757 324.223 175.681 325.611 174.165 325.611C172.638 325.611 171.574 324.223 171.574 322.036C171.574 319.849 172.638 318.46 174.165 318.449ZM174.165 319.259C173.147 319.27 172.43 320.358 172.43 322.036C172.43 323.714 173.147 324.801 174.165 324.801C175.195 324.801 175.89 323.714 175.89 322.036C175.89 320.358 175.195 319.27 174.165 319.259ZM179.373 317.65V321.758H181.097V322.545H179.373V327.937H178.47V317.65H179.373ZM188.21 319.861C188.21 321.249 189.309 322.499 190.848 322.985L190.386 323.714C189.188 323.309 188.233 322.464 187.77 321.376C187.319 322.551 186.353 323.477 185.132 323.922L184.658 323.193C186.197 322.649 187.296 321.319 187.296 319.861V319.259H184.889V318.518H190.582V319.259H188.21V319.861ZM193.001 317.662V325.206H192.098V317.662H193.001ZM193.325 326.954V327.717H186.359V324.489H187.261V326.954H193.325ZM204.108 325.901V326.664H194.689V325.901H198.924V323.957H195.869V320.786H202.025V319.166H195.846V318.414H202.916V321.527H196.771V323.205H203.159V323.957H199.815V325.901H204.108ZM211.221 319.317C211.221 320.717 212.286 322.001 213.778 322.51L213.281 323.228C212.141 322.811 211.244 321.961 210.793 320.89C210.353 322.1 209.439 323.054 208.236 323.517L207.75 322.788C209.289 322.21 210.319 320.833 210.33 319.247V318.183H211.221V319.317ZM215.826 317.65V320.335H217.377V321.099H215.826V323.91H214.924V317.65H215.826ZM212.529 324.177C214.646 324.177 215.919 324.859 215.919 326.04C215.919 327.243 214.646 327.914 212.529 327.914C210.411 327.914 209.115 327.243 209.115 326.04C209.115 324.859 210.411 324.177 212.529 324.177ZM212.529 324.906C210.978 324.906 210.018 325.334 210.029 326.04C210.018 326.769 210.978 327.185 212.529 327.197C214.091 327.185 215.04 326.769 215.04 326.04C215.04 325.334 214.091 324.906 212.529 324.906ZM226.008 317.65V320.173H227.558V320.937H226.008V323.494H225.105V317.65H226.008ZM223.011 318.356V319.097H219.354V322.129C221.42 322.14 222.594 322.065 223.971 321.793L224.087 322.534C222.641 322.823 221.414 322.881 219.25 322.881H218.452V318.356H223.011ZM226.008 324.026V327.798H219.516V324.026H226.008ZM220.407 324.767V327.058H225.105V324.767H220.407ZM113.023 336.65V341.915H112.109V340.839H109.366V340.122H112.109V338.884H109.517C108.869 340.509 107.272 341.603 104.992 342.147L104.668 341.395C107.191 340.81 108.66 339.578 108.834 337.923H105.189V337.171H109.829C109.829 337.513 109.794 337.842 109.736 338.155H112.109V336.65H113.023ZM113.023 342.378V344.889H107.283V346.093H113.37V346.845H106.381V344.195H112.109V343.119H106.358V342.378H113.023ZM120.381 337.796V338.328C120.369 339.138 120.369 340.504 120.08 342.413L119.166 342.332C119.443 340.608 119.466 339.358 119.466 338.537H115.15V337.796H120.381ZM117.684 340.735V343.859C118.824 343.819 119.993 343.744 121.063 343.616L121.11 344.299C118.946 344.635 116.527 344.681 114.688 344.669L114.572 343.917C115.249 343.911 116.001 343.906 116.794 343.882V340.735H117.684ZM122.614 336.65V340.955H124.28V341.742H122.614V346.937H121.711V336.65H122.614ZM134.276 344.866V345.618H124.857V344.866H129.092V342.644H125.968V337.379H126.882V339.242H132.228V337.379H133.119V342.644H129.983V344.866H134.276ZM126.882 341.904H132.228V339.983H126.882V341.904ZM143.289 337.692V338.722C143.277 339.983 143.277 341.395 142.907 343.466L141.981 343.362C142.375 341.395 142.375 339.948 142.375 338.722V338.444H136.034V337.692H143.289ZM144.411 344.727V345.479H135.039V344.727H138.718V341.048H139.609V344.727H144.411ZM148.842 339.416C148.842 341.279 150.033 343.153 151.526 343.836L150.982 344.577C149.814 343.975 148.847 342.743 148.39 341.279C147.933 342.818 146.967 344.137 145.798 344.762L145.208 344.033C146.713 343.292 147.916 341.314 147.916 339.416V337.541H148.842V339.416ZM153.748 336.65V346.96H152.845V340.909H150.404V340.168H152.845V336.65H153.748ZM164.809 341.429V342.147H155.39V341.429H164.809ZM163.628 342.968V345.155H157.449V346.139H163.964V346.798H156.535V344.53H162.726V343.651H156.524V342.968H163.628ZM163.594 336.963V339.092H157.519V339.995H163.779V340.654H156.616V338.467H162.679V337.622H156.581V336.963H163.594ZM171.98 338.56C171.98 339.925 172.987 341.175 174.514 341.707L174.051 342.413C172.877 341.996 171.98 341.152 171.54 340.087C171.1 341.256 170.157 342.164 168.948 342.61L168.462 341.904C170.001 341.36 171.077 340.029 171.089 338.56V338.12H168.74V337.379H174.294V338.12H171.98V338.56ZM176.539 336.65V339.37H178.09V340.145H176.539V342.853H175.636V336.65H176.539ZM176.539 343.396V346.937H175.636V344.137H169.805V343.396H176.539ZM182.219 338.27C182.207 339.74 183.249 341.036 184.765 341.545L184.256 342.251C183.122 341.823 182.231 340.99 181.791 339.902C181.345 341.134 180.402 342.095 179.164 342.563L178.667 341.823C180.252 341.267 181.305 339.902 181.316 338.305V337.241H182.219V338.27ZM187.206 336.65V342.748H186.292V339.613H184.001V338.861H186.292V336.65H187.206ZM183.793 343.049C185.933 343.049 187.241 343.755 187.241 344.993C187.241 346.22 185.933 346.914 183.793 346.914C181.652 346.914 180.345 346.22 180.345 344.993C180.345 343.755 181.652 343.049 183.793 343.049ZM183.793 343.767C182.219 343.767 181.235 344.23 181.247 344.993C181.235 345.734 182.219 346.185 183.793 346.185C185.366 346.185 186.338 345.734 186.338 344.993C186.338 344.23 185.366 343.767 183.793 343.767ZM196.902 336.616V339.115H198.464V339.867H196.902V342.309H195.999V336.616H196.902ZM196.902 342.841V345.121H191.255V346.127H197.283V346.822H190.364V344.449H195.999V343.524H190.341V342.841H196.902ZM195.015 337.588V338.317H188.883V337.588H191.498V336.546H192.4V337.588H195.015ZM191.949 338.78C193.442 338.78 194.414 339.428 194.425 340.469C194.414 341.51 193.442 342.158 191.949 342.158C190.445 342.158 189.461 341.51 189.473 340.469C189.461 339.428 190.445 338.78 191.949 338.78ZM191.949 339.451C190.977 339.451 190.329 339.856 190.341 340.469C190.329 341.094 190.977 341.476 191.949 341.476C192.921 341.476 193.557 341.094 193.569 340.469C193.557 339.856 192.921 339.451 191.949 339.451ZM208.771 336.882V340.862H210.021V336.65H210.888V346.937H210.021V341.615H208.771V346.428H207.926V336.882H208.771ZM204.501 337.958V338.71H203.112V343.477C203.5 343.466 204.009 343.42 204.57 343.281L204.651 344.056C203.784 344.253 203.112 344.253 202.673 344.253H202.268V337.958H204.501ZM207.232 337.958V338.71H205.774V343.477C206.254 343.472 206.827 343.425 207.452 343.246L207.533 344.021C206.676 344.253 205.971 344.253 205.369 344.253H204.952V337.958H207.232Z" fill="#FFF5EB"/>
<path d="M50.667 305.724C50.667 304.833 51.0182 303.977 51.6433 303.347C52.2684 302.716 53.1163 302.362 54.0003 302.362H67.3337C67.7757 302.362 68.1995 302.539 68.512 302.855L76.8453 311.26C77.1579 311.576 77.3336 312.003 77.3337 312.449V332.623C77.3337 333.515 76.9825 334.37 76.3573 335C75.7322 335.631 74.8844 335.985 74.0003 335.985H54.0003C53.1163 335.985 52.2684 335.631 51.6433 335C51.0182 334.37 50.667 333.515 50.667 332.623V305.724ZM73.3103 312.449L67.3337 306.42V312.449H73.3103ZM64.0003 305.724H54.0003V332.623H74.0003V315.811H65.667C65.225 315.811 64.801 315.634 64.4885 315.319C64.1759 315.004 64.0003 314.576 64.0003 314.13V305.724ZM57.3337 320.855C57.3337 320.409 57.5093 319.981 57.8218 319.666C58.1344 319.351 58.5583 319.174 59.0003 319.174H69.0003C69.4424 319.174 69.8663 319.351 70.1788 319.666C70.4914 319.981 70.667 320.409 70.667 320.855C70.667 321.301 70.4914 321.728 70.1788 322.044C69.8663 322.359 69.4424 322.536 69.0003 322.536H59.0003C58.5583 322.536 58.1344 322.359 57.8218 322.044C57.5093 321.728 57.3337 321.301 57.3337 320.855ZM57.3337 327.579C57.3337 327.134 57.5093 326.706 57.8218 326.391C58.1344 326.075 58.5583 325.898 59.0003 325.898H69.0003C69.4424 325.898 69.8663 326.075 70.1788 326.391C70.4914 326.706 70.667 327.134 70.667 327.579C70.667 328.025 70.4914 328.453 70.1788 328.768C69.8663 329.083 69.4424 329.261 69.0003 329.261H59.0003C58.5583 329.261 58.1344 329.083 57.8218 328.768C57.5093 328.453 57.3337 328.025 57.3337 327.579Z" fill="white"/>
<rect x="20" y="384" width="335" height="98" rx="16" fill="#FF7700"/>
<path d="M107.91 404.186C109.797 404.186 111.232 405.361 111.232 407.029C111.232 408.67 109.797 409.859 107.91 409.859C105.982 409.859 104.561 408.67 104.561 407.029C104.561 405.361 105.982 404.186 107.91 404.186ZM107.91 405.607C106.953 405.607 106.242 406.127 106.256 407.029C106.242 407.918 106.953 408.451 107.91 408.451C108.854 408.451 109.551 407.918 109.551 407.029C109.551 406.127 108.854 405.607 107.91 405.607ZM114.787 403.816V410.051H113.037V403.816H114.787ZM114.787 410.57V413.947H108.17V414.754H115.129V416.121H106.461V412.676H113.051V411.91H106.434V410.57H114.787ZM126.885 403.816V411.199H125.149V408.26H123.207V406.852H125.149V403.816H126.885ZM122.633 411.473C125.285 411.486 126.912 412.361 126.926 413.879C126.912 415.383 125.285 416.271 122.633 416.271C119.981 416.271 118.354 415.383 118.354 413.879C118.354 412.361 119.981 411.486 122.633 411.473ZM122.633 412.812C120.979 412.812 120.09 413.154 120.09 413.879C120.09 414.59 120.979 414.945 122.633 414.945C124.287 414.945 125.19 414.59 125.19 413.879C125.19 413.154 124.287 412.812 122.633 412.812ZM123.576 404.568V405.963H121.102C121.143 407.412 122.018 408.875 123.959 409.518L123.098 410.885C121.724 410.44 120.781 409.538 120.241 408.41C119.687 409.682 118.696 410.707 117.219 411.213L116.317 409.832C118.361 409.148 119.277 407.521 119.325 405.963H116.823V404.568H123.576ZM142.974 413.4V414.809H131.585V413.4H136.397V410.625H138.147V413.4H142.974ZM141.976 404.76V406.168H138.188C138.332 407.809 139.877 409.333 142.55 409.723L141.866 411.104C139.686 410.721 138.072 409.654 137.272 408.178C136.479 409.682 134.88 410.775 132.733 411.172L132.05 409.791C134.634 409.374 136.186 407.815 136.329 406.168H132.528V404.76H141.976ZM149.288 403.926C152.146 403.926 153.8 404.678 153.814 406.059C153.8 407.426 152.146 408.178 149.288 408.178C146.417 408.178 144.749 407.426 144.749 406.059C144.749 404.678 146.417 403.926 149.288 403.926ZM149.288 405.211C147.456 405.211 146.568 405.484 146.581 406.059C146.568 406.66 147.456 406.906 149.288 406.906C151.134 406.906 152.009 406.66 152.009 406.059C152.009 405.484 151.134 405.211 149.288 405.211ZM154.962 408.697V410.064H152.118V410.939H153.581V414.111H146.65V414.863H153.909V416.176H144.941V412.895H151.859V412.211H144.927V410.939H146.472V410.064H143.615V408.697H154.962ZM148.195 410.939H150.382V410.064H148.195V410.939Z" fill="white"/>
<path d="M112.537 431.65V434.104H114.087V434.867H112.537V437.216H111.623V431.65H112.537ZM109.736 432.287C109.736 434.856 107.897 436.603 104.865 437.355L104.518 436.603C107.063 435.99 108.574 434.688 108.741 433.027H104.969V432.287H109.736ZM106.913 437.691V438.998H111.634V437.691H112.537V441.798H105.999V437.691H106.913ZM106.913 441.058H111.634V439.727H106.913V441.058ZM118.159 433.56C118.159 434.925 119.166 436.175 120.693 436.707L120.23 437.413C119.056 436.996 118.159 436.152 117.719 435.087C117.279 436.256 116.336 437.164 115.127 437.61L114.641 436.904C116.18 436.36 117.256 435.029 117.268 433.56V433.12H114.919V432.379H120.473V433.12H118.159V433.56ZM122.718 431.65V434.37H124.269V435.145H122.718V437.853H121.815V431.65H122.718ZM122.718 438.396V441.937H121.815V439.137H115.984V438.396H122.718ZM129.983 433.166C129.983 434.925 131.997 436.499 133.79 436.834L133.374 437.598C131.823 437.239 130.186 436.134 129.52 434.613C128.855 436.129 127.224 437.234 125.667 437.598L125.251 436.834C127.033 436.487 129.034 434.937 129.034 433.166V432.379H129.983V433.166ZM134.276 439.785V440.537H124.857V439.785H134.276ZM143.555 431.65V441.96H142.652V436.372H140.651V435.608H142.652V431.65H143.555ZM140.026 432.611V436.21H136.335V438.709C138.105 438.709 139.389 438.657 140.894 438.373L140.963 439.137C139.412 439.415 138.082 439.473 136.219 439.484H135.432V435.457H139.146V433.363H135.397V432.611H140.026ZM154.627 436.881V437.633H150.45V439.739H149.536V437.633H145.208V436.881H154.627ZM153.574 440.942V441.717H146.423V438.709H147.337V440.942H153.574ZM149.906 431.917C152.105 431.928 153.528 432.715 153.528 433.988C153.528 435.261 152.105 436.036 149.906 436.036C147.708 436.036 146.273 435.261 146.273 433.988C146.273 432.715 147.708 431.928 149.906 431.917ZM149.906 432.657C148.309 432.657 147.233 433.166 147.245 433.988C147.233 434.786 148.309 435.295 149.906 435.295C151.503 435.295 152.568 434.786 152.568 433.988C152.568 433.166 151.503 432.657 149.906 432.657ZM163.442 433.166C163.442 434.925 165.455 436.499 167.249 436.834L166.832 437.598C165.282 437.239 163.644 436.134 162.979 434.613C162.314 436.129 160.682 437.234 159.126 437.598L158.709 436.834C160.491 436.487 162.493 434.937 162.493 433.166V432.379H163.442V433.166ZM167.735 439.785V440.537H158.316V439.785H167.735ZM173.033 432.877C173.027 433.849 172.917 434.809 172.628 435.724H174.271V431.928H175.139V441.417H174.271V436.476H172.327C171.748 437.743 170.742 438.888 169.087 439.797L168.566 439.149C170.152 438.287 171.095 437.205 171.621 435.99L168.682 436.291L168.543 435.481L171.876 435.272C172.02 434.74 172.107 434.19 172.142 433.629H169.041V432.877H173.033ZM177.303 431.65V441.937H176.435V431.65H177.303ZM188.051 435.955V436.696H183.804V437.737H186.848V440.074H180.738V441.104H187.16V441.822H179.835V439.403H185.957V438.431H179.812V437.737H182.913V436.696H178.678V435.955H188.051ZM187.218 432.021V432.738H183.897C184.024 433.803 185.742 434.595 187.553 434.752L187.253 435.446C185.569 435.272 183.984 434.618 183.376 433.583C182.751 434.618 181.172 435.272 179.488 435.446L179.187 434.752C180.987 434.595 182.699 433.814 182.844 432.738H179.535V432.021H187.218ZM198.279 439.901V440.664H188.86V439.901H193.095V437.957H190.04V434.786H196.196V433.166H190.017V432.414H197.087V435.527H190.942V437.205H197.33V437.957H193.986V439.901H198.279ZM209.916 431.65V435.724H211.64V436.487H209.916V441.96H209.014V431.65H209.916ZM207.209 432.657V433.409H203.309V438.616C205.172 438.616 206.491 438.53 208.019 438.246L208.134 439.033C206.526 439.322 205.172 439.38 203.217 439.38H202.407V432.657H207.209ZM214.266 437.54V438.906H219.415V437.54H220.318V441.798H213.363V437.54H214.266ZM214.266 441.058H219.415V439.623H214.266V441.058ZM220.318 432.125V432.877C220.318 433.664 220.318 434.578 220.04 435.862H221.556V436.615H212.137V435.862H219.149C219.415 434.584 219.415 433.664 219.415 432.877H213.328V432.125H220.318ZM230.279 431.65V435.897H232.003V436.649H230.279V441.937H229.376V431.65H230.279ZM228.381 433.305V434.057H222.26V433.305H224.91V431.778H225.812V433.305H228.381ZM225.373 434.914C226.831 434.914 227.884 435.886 227.895 437.274C227.884 438.663 226.831 439.635 225.373 439.635C223.903 439.635 222.839 438.663 222.85 437.274C222.839 435.886 223.903 434.914 225.373 434.914ZM225.373 435.677C224.412 435.677 223.706 436.348 223.718 437.274C223.706 438.211 224.412 438.871 225.373 438.859C226.322 438.871 227.016 438.211 227.027 437.274C227.016 436.348 226.322 435.677 225.373 435.677ZM241.305 431.65V441.937H240.437V431.65H241.305ZM239.141 431.928V441.417H238.273V436.615H236.098C235.467 437.812 234.478 438.871 233.043 439.716L232.511 439.056C234.75 437.731 235.872 435.874 236.04 433.722H232.951V432.97H236.943C236.937 433.982 236.775 434.96 236.433 435.874H238.273V431.928H239.141ZM107.411 451.032C108.95 451.044 110.072 451.97 110.072 453.312C110.072 454.654 108.95 455.58 107.411 455.58C105.849 455.58 104.738 454.654 104.738 453.312C104.738 451.97 105.849 451.044 107.411 451.032ZM107.411 451.796C106.381 451.796 105.617 452.421 105.629 453.312C105.617 454.214 106.381 454.839 107.411 454.839C108.429 454.839 109.193 454.214 109.193 453.312C109.193 452.421 108.429 451.796 107.411 451.796ZM112.988 450.65V455.939H112.085V450.65H112.988ZM112.988 456.436V458.912H107.214V460.069H113.358V460.798H106.323V458.23H112.085V457.165H106.3V456.436H112.988ZM123.204 450.65V456.783H122.29V454.087H120.219V453.335H122.29V450.65H123.204ZM119.79 457.107C121.931 457.107 123.239 457.801 123.239 459.016C123.239 460.231 121.931 460.926 119.79 460.937C117.65 460.926 116.342 460.231 116.342 459.016C116.342 457.801 117.65 457.107 119.79 457.107ZM119.79 457.813C118.217 457.813 117.233 458.264 117.245 459.016C117.233 459.757 118.217 460.208 119.79 460.208C121.364 460.208 122.336 459.757 122.336 459.016C122.336 458.264 121.364 457.813 119.79 457.813ZM118.251 452.537C118.251 453.879 119.281 455.152 120.786 455.672L120.311 456.401C119.154 455.985 118.257 455.123 117.823 454.052C117.372 455.262 116.417 456.228 115.197 456.691L114.722 455.962C116.25 455.406 117.337 454.018 117.337 452.548V452.166H115.012V451.403H120.554V452.166H118.251V452.537ZM137.191 458.854V459.618H127.772V458.854H132.018V456.355H132.933V458.854H137.191ZM132.933 452.606C132.933 454.249 134.969 455.661 136.74 455.95L136.369 456.667C134.796 456.361 133.135 455.36 132.481 453.925C131.816 455.366 130.161 456.39 128.617 456.714L128.235 455.985C129.97 455.684 131.995 454.249 131.995 452.606V452.351H128.547V451.588H136.381V452.351H132.933V452.606ZM142.639 450.778C144.931 450.778 146.273 451.414 146.273 452.56C146.273 453.717 144.931 454.342 142.639 454.353C140.348 454.342 138.995 453.717 138.995 452.56C138.995 451.414 140.348 450.778 142.639 450.778ZM142.639 451.472C140.927 451.484 139.932 451.877 139.943 452.56C139.932 453.266 140.927 453.647 142.639 453.659C144.34 453.647 145.347 453.266 145.347 452.56C145.347 451.877 144.34 451.484 142.639 451.472ZM147.326 454.978V455.719H144.711V456.737H146.122V459.04H140.013V460.104H146.435V460.822H139.11V458.368H145.231V457.431H139.087V456.737H140.51V455.719H137.953V454.978H147.326ZM141.401 456.737H143.808V455.719H141.401V456.737ZM156.616 450.65V460.96H155.702V450.65H156.616ZM151.143 451.449C152.67 451.46 153.77 452.849 153.77 455.036C153.77 457.223 152.67 458.611 151.143 458.611C149.604 458.611 148.516 457.223 148.516 455.036C148.516 452.849 149.604 451.46 151.143 451.449ZM151.143 452.259C150.113 452.27 149.396 453.358 149.396 455.036C149.396 456.714 150.113 457.801 151.143 457.801C152.173 457.801 152.89 456.714 152.89 455.036C152.89 453.358 152.173 452.27 151.143 452.259ZM169.735 450.65V455.996H168.821V450.65H169.735ZM169.735 456.494V458.947H163.926V460.081H170.129V460.822H163.035V458.264H168.833V457.223H163.001V456.494H169.735ZM167.259 451.356V452.085H166.217V454.712C166.75 454.683 167.276 454.631 167.768 454.573L167.814 455.244C165.755 455.545 163.336 455.626 161.52 455.626L161.404 454.874L162.723 454.862V452.085H161.693V451.356H167.259ZM163.602 454.839C164.169 454.828 164.754 454.81 165.338 454.77V452.085H163.602V454.839ZM180.83 458.854V459.618H171.412V458.854H173.749V456.077C172.869 455.62 172.337 454.88 172.337 453.948C172.337 452.351 173.899 451.31 176.098 451.298C178.296 451.31 179.859 452.351 179.859 453.948C179.859 454.862 179.344 455.597 178.493 456.054V458.854H180.83ZM176.098 452.051C174.408 452.039 173.217 452.803 173.217 453.948C173.217 455.094 174.408 455.869 176.098 455.869C177.776 455.869 178.979 455.094 178.979 453.948C178.979 452.803 177.776 452.039 176.098 452.051ZM174.64 458.854H177.579V456.401C177.133 456.523 176.636 456.586 176.098 456.586C175.571 456.586 175.08 456.529 174.64 456.413V458.854ZM189.635 450.616V453.115H191.197V453.867H189.635V456.309H188.732V450.616H189.635ZM189.635 456.841V459.121H183.988V460.127H190.017V460.822H183.097V458.449H188.732V457.524H183.074V456.841H189.635ZM187.749 451.588V452.317H181.616V451.588H184.231V450.546H185.134V451.588H187.749ZM184.682 452.78C186.175 452.78 187.147 453.428 187.159 454.469C187.147 455.51 186.175 456.158 184.682 456.158C183.178 456.158 182.195 455.51 182.206 454.469C182.195 453.428 183.178 452.78 184.682 452.78ZM184.682 453.451C183.71 453.451 183.062 453.856 183.074 454.469C183.062 455.094 183.71 455.476 184.682 455.476C185.654 455.476 186.291 455.094 186.302 454.469C186.291 453.856 185.654 453.451 184.682 453.451ZM201.504 450.882V454.862H202.754V450.65H203.622V460.937H202.754V455.615H201.504V460.428H200.659V450.882H201.504ZM197.234 451.958V452.71H195.846V457.477C196.233 457.466 196.743 457.42 197.304 457.281L197.385 458.056C196.517 458.253 195.846 458.253 195.406 458.253H195.001V451.958H197.234ZM199.965 451.958V452.71H198.507V457.477C198.987 457.472 199.56 457.425 200.185 457.246L200.266 458.021C199.41 458.253 198.704 458.253 198.102 458.253H197.686V451.958H199.965Z" fill="#FFF5EB"/>
<path d="M75.6668 419.667H72.3335V418C72.3335 417.558 72.1579 417.134 71.8453 416.821C71.5328 416.509 71.1089 416.333 70.6668 416.333C70.2248 416.333 69.8009 416.509 69.4883 416.821C69.1758 417.134 69.0002 417.558 69.0002 418V419.667H59.0002V418C59.0002 417.558 58.8246 417.134 58.512 416.821C58.1994 416.509 57.7755 416.333 57.3335 416.333C56.8915 416.333 56.4675 416.509 56.155 416.821C55.8424 417.134 55.6668 417.558 55.6668 418V419.667H52.3335C51.0074 419.667 49.7356 420.193 48.798 421.131C47.8603 422.069 47.3335 423.341 47.3335 424.667V444.667C47.3335 445.993 47.8603 447.264 48.798 448.202C49.7356 449.14 51.0074 449.667 52.3335 449.667H75.6668C76.9929 449.667 78.2647 449.14 79.2024 448.202C80.1401 447.264 80.6668 445.993 80.6668 444.667V424.667C80.6668 423.341 80.1401 422.069 79.2024 421.131C78.2647 420.193 76.9929 419.667 75.6668 419.667ZM77.3335 444.667C77.3335 445.109 77.1579 445.533 76.8453 445.845C76.5328 446.158 76.1089 446.333 75.6668 446.333H52.3335C51.8915 446.333 51.4675 446.158 51.155 445.845C50.8424 445.533 50.6668 445.109 50.6668 444.667V433H77.3335V444.667ZM77.3335 429.667H50.6668V424.667C50.6668 424.225 50.8424 423.801 51.155 423.488C51.4675 423.176 51.8915 423 52.3335 423H55.6668V424.667C55.6668 425.109 55.8424 425.533 56.155 425.845C56.4675 426.158 56.8915 426.333 57.3335 426.333C57.7755 426.333 58.1994 426.158 58.512 425.845C58.8246 425.533 59.0002 425.109 59.0002 424.667V423H69.0002V424.667C69.0002 425.109 69.1758 425.533 69.4883 425.845C69.8009 426.158 70.2248 426.333 70.6668 426.333C71.1089 426.333 71.5328 426.158 71.8453 425.845C72.1579 425.533 72.3335 425.109 72.3335 424.667V423H75.6668C76.1089 423 76.5328 423.176 76.8453 423.488C77.1579 423.801 77.3335 424.225 77.3335 424.667V429.667Z" fill="white"/>
<rect x="20" y="498" width="335" height="98" rx="16" fill="#FF7700"/>
<path d="M108.908 519.771C108.908 521.275 109.783 522.725 111.752 523.34L110.822 524.693C109.503 524.256 108.58 523.408 108.047 522.314C107.507 523.572 106.543 524.557 105.121 525.035L104.178 523.668C106.256 522.971 107.145 521.316 107.158 519.607V518.473H108.908V519.771ZM114.24 517.816V520.729H115.922V522.178H114.24V525.199H112.49V517.816H114.24ZM110.166 525.445C112.736 525.445 114.363 526.334 114.363 527.852C114.363 529.383 112.736 530.258 110.166 530.258C107.541 530.258 105.9 529.383 105.9 527.852C105.9 526.334 107.541 525.445 110.166 525.445ZM110.166 526.812C108.525 526.812 107.637 527.168 107.65 527.852C107.637 528.562 108.525 528.891 110.166 528.891C111.779 528.891 112.641 528.562 112.641 527.852C112.641 527.168 111.779 526.812 110.166 526.812ZM126.27 517.816V520.619H127.951V522.055H126.27V524.803H124.52V517.816H126.27ZM122.428 518.596V519.977H118.627V522.943C120.876 522.93 122.114 522.848 123.508 522.561L123.686 523.928C122.127 524.283 120.692 524.338 117.93 524.338H116.877V518.596H122.428ZM126.27 525.322V530.107H118.135V525.322H126.27ZM119.858 526.703V528.74H124.547V526.703H119.858ZM136.288 520.633C136.288 522.971 137.231 525.24 139.31 526.143L138.243 527.537C136.862 526.86 135.939 525.623 135.427 524.092C134.88 525.719 133.923 527.052 132.501 527.756L131.407 526.334C133.54 525.377 134.511 522.971 134.524 520.633V518.773H136.288V520.633ZM142.085 517.816V530.285H140.362V523.135H137.915V521.727H140.362V517.816H142.085ZM154.99 525.117V526.484H152.365V530.258H150.601V526.484H148.003V530.258H146.267V526.484H143.601V525.117H154.99ZM153.677 518.186V521.809H146.718V522.82H153.964V524.215H144.954V520.537H151.886V519.607H144.913V518.186H153.677ZM165.773 518.719V519.498C165.773 520.359 165.773 521.604 165.486 523.148L163.777 522.984C163.996 521.788 164.051 520.886 164.064 520.141H159.375V518.719H165.773ZM162.684 521.59V523.969C163.921 523.921 165.192 523.825 166.361 523.654L166.457 524.912C163.873 525.391 160.947 525.432 158.787 525.445L158.637 524.051C159.334 524.051 160.12 524.051 160.947 524.023V521.59H162.684ZM168.822 517.816V521.604H170.326V523.066H168.822V527.127H167.031V517.816H168.822ZM169.205 528.645V530.039H160.469V526.293H162.219V528.645H169.205ZM181.262 517.816V530.285H179.526V517.816H181.262ZM177.406 518.855V523.654H173.305V525.938C175.198 525.931 176.812 525.821 178.637 525.527L178.787 526.936C176.737 527.291 174.891 527.373 172.621 527.373H171.5V522.273H175.629V520.264H171.487V518.855H177.406Z" fill="white"/>
<path d="M107.931 547.317C107.931 548.717 108.996 550.001 110.489 550.51L109.991 551.228C108.851 550.811 107.954 549.961 107.503 548.89C107.063 550.1 106.149 551.054 104.946 551.517L104.46 550.788C105.999 550.21 107.029 548.833 107.04 547.247V546.183H107.931V547.317ZM112.537 545.65V548.335H114.087V549.099H112.537V551.91H111.634V545.65H112.537ZM109.239 552.177C111.356 552.177 112.629 552.859 112.629 554.04C112.629 555.243 111.356 555.914 109.239 555.914C107.121 555.914 105.825 555.243 105.825 554.04C105.825 552.859 107.121 552.177 109.239 552.177ZM109.239 552.906C107.688 552.906 106.728 553.334 106.74 554.04C106.728 554.769 107.688 555.185 109.239 555.197C110.801 555.185 111.75 554.769 111.75 554.04C111.75 553.334 110.801 552.906 109.239 552.906ZM122.718 545.65V548.173H124.269V548.937H122.718V551.494H121.815V545.65H122.718ZM119.721 546.356V547.097H116.065V550.129C118.13 550.14 119.304 550.065 120.681 549.793L120.797 550.534C119.351 550.823 118.124 550.881 115.96 550.881H115.162V546.356H119.721ZM122.718 552.026V555.798H116.227V552.026H122.718ZM117.118 552.767V555.058H121.815V552.767H117.118ZM136.265 545.662V553.206H135.363V545.662H136.265ZM136.589 554.954V555.717H129.623V552.512H130.526V554.954H136.589ZM131.417 547.27C131.405 548.833 132.481 550.244 134.009 550.8L133.534 551.529C132.342 551.072 131.417 550.146 130.965 548.96C130.508 550.221 129.571 551.234 128.374 551.714L127.876 551.008C129.438 550.406 130.491 548.89 130.491 547.27V546.241H131.417V547.27ZM141.459 547.861C141.459 549.145 142.57 550.291 144.086 550.742L143.646 551.448C142.454 551.095 141.5 550.314 141.043 549.295C140.591 550.424 139.654 551.309 138.428 551.714L137.988 551.02C139.504 550.51 140.568 549.261 140.568 547.861V547.641H138.242V546.912H140.568V545.604H141.482V546.912H143.785V547.641H141.459V547.861ZM146.481 545.65V551.887H145.567V549.353H143.461V548.601H145.567V545.65H146.481ZM143.068 552.165C145.208 552.165 146.516 552.836 146.516 554.04C146.516 555.231 145.208 555.914 143.068 555.914C140.927 555.914 139.619 555.231 139.619 554.04C139.619 552.836 140.927 552.165 143.068 552.165ZM143.068 552.871C141.494 552.882 140.51 553.311 140.522 554.04C140.51 554.757 141.494 555.197 143.068 555.197C144.653 555.197 145.613 554.757 145.613 554.04C145.613 553.311 144.653 552.882 143.068 552.871ZM151.756 548.416C151.756 550.279 152.948 552.153 154.441 552.836L153.897 553.577C152.728 552.975 151.762 551.743 151.305 550.279C150.848 551.818 149.882 553.137 148.713 553.762L148.123 553.033C149.627 552.292 150.83 550.314 150.83 548.416V546.541H151.756V548.416ZM156.662 545.65V555.96H155.76V549.909H153.318V549.168H155.76V545.65H156.662ZM160.005 554.225L159.103 557.372H158.246L158.883 554.225H160.005ZM167.639 547.317C167.639 548.717 168.704 550.001 170.197 550.51L169.699 551.228C168.559 550.811 167.662 549.961 167.211 548.89C166.771 550.1 165.857 551.054 164.654 551.517L164.168 550.788C165.707 550.21 166.737 548.833 166.748 547.247V546.183H167.639V547.317ZM172.245 545.65V548.335H173.795V549.099H172.245V551.91H171.342V545.65H172.245ZM168.947 552.177C171.064 552.177 172.337 552.859 172.337 554.04C172.337 555.243 171.064 555.914 168.947 555.914C166.829 555.914 165.533 555.243 165.533 554.04C165.533 552.859 166.829 552.177 168.947 552.177ZM168.947 552.906C167.396 552.906 166.436 553.334 166.447 554.04C166.436 554.769 167.396 555.185 168.947 555.197C170.509 555.185 171.458 554.769 171.458 554.04C171.458 553.334 170.509 552.906 168.947 552.906ZM182.426 545.65V548.173H183.976V548.937H182.426V551.494H181.523V545.65H182.426ZM179.429 546.356V547.097H175.772V550.129C177.838 550.14 179.012 550.065 180.389 549.793L180.505 550.534C179.059 550.823 177.832 550.881 175.668 550.881H174.87V546.356H179.429ZM182.426 552.026V555.798H175.934V552.026H182.426ZM176.825 552.767V555.058H181.523V552.767H176.825ZM195.51 545.662V548.775H197.049V549.538H195.51V552.558H194.596V545.662H195.51ZM187.433 551.505C188.255 551.505 189.215 551.505 190.222 551.471V550.719C189.025 550.615 188.255 550.053 188.255 549.203C188.255 548.266 189.215 547.687 190.662 547.687C192.12 547.687 193.069 548.266 193.08 549.203C193.069 550.048 192.317 550.609 191.125 550.719V551.436C192.085 551.39 193.057 551.315 193.96 551.181L194.041 551.841C191.807 552.234 189.343 552.246 187.538 552.246L187.433 551.505ZM195.51 553.068V555.937H194.596V553.797H188.695V553.068H195.51ZM193.647 546.599V547.294H187.688V546.599H190.222V545.569H191.125V546.599H193.647ZM190.662 548.335C189.713 548.323 189.123 548.659 189.123 549.203C189.123 549.735 189.713 550.105 190.662 550.094C191.611 550.105 192.212 549.735 192.212 549.203C192.212 548.659 191.611 548.323 190.662 548.335ZM206.154 545.662V553.183H205.252V545.662H206.154ZM206.478 554.954V555.717H199.512V552.42H200.415V554.954H206.478ZM200.6 546.379C202.139 546.379 203.296 547.421 203.296 548.902C203.296 550.406 202.139 551.436 200.6 551.436C199.061 551.436 197.904 550.406 197.904 548.902C197.904 547.421 199.061 546.379 200.6 546.379ZM200.6 547.178C199.559 547.178 198.783 547.895 198.795 548.902C198.783 549.932 199.559 550.638 200.6 550.638C201.618 550.638 202.405 549.932 202.405 548.902C202.405 547.895 201.618 547.178 200.6 547.178ZM211.464 548.416C211.464 550.279 212.656 552.153 214.149 552.836L213.605 553.577C212.436 552.975 211.47 551.743 211.013 550.279C210.556 551.818 209.59 553.137 208.421 553.762L207.831 553.033C209.335 552.292 210.538 550.314 210.538 548.416V546.541H211.464V548.416ZM216.37 545.65V555.96H215.468V549.909H213.026V549.168H215.468V545.65H216.37ZM230.322 550.545V551.309H220.938V550.545H230.322ZM229.223 548.821V549.562H222.13V546.067H229.154V546.831H223.021V548.821H229.223ZM225.625 552.211C227.835 552.211 229.154 552.882 229.165 554.063C229.154 555.255 227.835 555.914 225.625 555.914C223.403 555.914 222.072 555.255 222.072 554.063C222.072 552.882 223.403 552.211 225.625 552.211ZM225.625 552.917C223.97 552.929 222.986 553.345 222.998 554.063C222.986 554.792 223.97 555.197 225.625 555.197C227.256 555.197 228.251 554.792 228.251 554.063C228.251 553.345 227.256 552.929 225.625 552.917ZM234.487 546.403C236.107 546.403 237.252 547.386 237.252 548.821C237.252 550.256 236.107 551.239 234.487 551.239C232.867 551.239 231.698 550.256 231.71 548.821C231.698 547.386 232.867 546.403 234.487 546.403ZM234.487 547.201C233.387 547.201 232.589 547.861 232.601 548.821C232.589 549.781 233.387 550.441 234.487 550.441C235.574 550.441 236.361 549.781 236.361 548.821C236.361 547.861 235.574 547.201 234.487 547.201ZM239.555 545.65V555.96H238.652V545.65H239.555ZM231.177 552.917C233.075 552.917 235.69 552.906 237.97 552.57L238.039 553.241C235.69 553.681 233.156 553.692 231.305 553.692L231.177 552.917ZM110.199 565.449V565.993C110.188 566.664 110.188 567.694 109.933 569.036L109.019 568.967C109.268 567.734 109.291 566.861 109.308 566.213H105.073V565.449H110.199ZM107.549 567.728V569.939C108.689 569.892 109.87 569.811 110.94 569.661L110.998 570.332C108.845 570.702 106.358 570.748 104.529 570.748L104.437 569.996C105.102 569.991 105.854 569.985 106.647 569.962V567.728H107.549ZM112.56 564.65V568.006H114.064V568.781H112.56V572.392H111.634V564.65H112.56ZM112.895 573.954V574.717H106.022V571.697H106.936V573.954H112.895ZM119.559 565.391V568.388H116.018V570.089C117.899 570.089 118.928 570.037 120.184 569.823L120.276 570.575C118.934 570.806 117.858 570.841 115.845 570.841H115.104V567.671H118.633V566.132H115.081V565.391H119.559ZM123.204 564.662V572.23H122.29V569.453H120.253V568.7H122.29V567.138H120.253V566.398H122.29V564.662H123.204ZM123.516 573.907V574.66H116.516V571.674H117.43V573.907H123.516ZM131.394 567.416C131.394 569.279 132.585 571.153 134.078 571.836L133.534 572.577C132.366 571.975 131.399 570.743 130.942 569.279C130.485 570.818 129.519 572.137 128.35 572.762L127.76 572.033C129.265 571.292 130.468 569.314 130.468 567.416V565.541H131.394V567.416ZM136.3 564.65V574.96H135.397V568.909H132.956V568.168H135.397V564.65H136.3ZM147.361 570.795V571.524H144.884V574.937H143.982V571.524H141.32V574.937H140.406V571.524H137.942V570.795H147.361ZM146.215 565.055V567.694H140.013V568.978H146.435V569.73H139.099V566.988H145.289V565.808H139.076V565.055H146.215ZM157.542 569.429V570.147H148.123V569.429H157.542ZM156.362 570.968V573.155H150.182V574.139H156.697V574.798H149.268V572.53H155.459V571.651H149.257V570.968H156.362ZM156.327 564.963V567.092H150.252V567.995H156.512V568.654H149.349V566.467H155.413V565.622H149.315V564.963H156.327ZM166.935 565.449V565.993C166.923 566.664 166.923 567.694 166.669 569.036L165.755 568.967C166.003 567.734 166.027 566.861 166.044 566.213H161.809V565.449H166.935ZM164.285 567.728V569.939C165.425 569.892 166.605 569.811 167.675 569.661L167.733 570.332C165.581 570.702 163.093 570.748 161.265 570.748L161.172 569.996C161.838 569.991 162.59 569.985 163.382 569.962V567.728H164.285ZM169.295 564.65V568.006H170.8V568.781H169.295V572.392H168.37V564.65H169.295ZM169.631 573.954V574.717H162.758V571.697H163.672V573.954H169.631ZM179.905 564.65V574.96H179.002V564.65H179.905ZM176.781 565.611V569.267H172.939V571.697C174.646 571.697 176.167 571.622 178.007 571.327L178.1 572.091C176.202 572.392 174.64 572.461 172.869 572.461H172.013V568.527H175.866V566.363H171.99V565.611H176.781ZM189.635 564.616V567.115H191.197V567.867H189.635V570.309H188.732V564.616H189.635ZM189.635 570.841V573.121H183.988V574.127H190.017V574.822H183.097V572.449H188.732V571.524H183.074V570.841H189.635ZM187.749 565.588V566.317H181.616V565.588H184.231V564.546H185.134V565.588H187.749ZM184.682 566.78C186.175 566.78 187.147 567.428 187.159 568.469C187.147 569.51 186.175 570.158 184.682 570.158C183.178 570.158 182.195 569.51 182.206 568.469C182.195 567.428 183.178 566.78 184.682 566.78ZM184.682 567.451C183.71 567.451 183.062 567.856 183.074 568.469C183.062 569.094 183.71 569.476 184.682 569.476C185.654 569.476 186.291 569.094 186.302 568.469C186.291 567.856 185.654 567.451 184.682 567.451ZM201.504 564.882V568.862H202.754V564.65H203.622V574.937H202.754V569.615H201.504V574.428H200.659V564.882H201.504ZM197.234 565.958V566.71H195.846V571.477C196.233 571.466 196.743 571.42 197.304 571.281L197.385 572.056C196.517 572.253 195.846 572.253 195.406 572.253H195.001V565.958H197.234ZM199.965 565.958V566.71H198.507V571.477C198.987 571.472 199.56 571.425 200.185 571.246L200.266 572.021C199.41 572.253 198.704 572.253 198.102 572.253H197.686V565.958H199.965Z" fill="#FFF5EB"/>
<path d="M75.6667 538.667H63.4333C62.6219 538.666 61.8385 538.37 61.23 537.833L57.4433 534.5H71.5C72.6051 534.5 73.6649 534.939 74.4463 535.72C75.2277 536.502 75.6667 537.562 75.6667 538.667ZM75.6667 538.667C76.5507 538.667 77.3986 539.018 78.0237 539.643C78.6488 540.268 79 541.116 79 542V557C79 557.884 78.6488 558.732 78.0237 559.357C77.3986 559.982 76.5507 560.333 75.6667 560.333H52.3333C51.4493 560.333 50.6014 559.982 49.9763 559.357C49.3512 558.732 49 557.884 49 557V537C49 536.116 49.3512 535.268 49.9763 534.643C50.6014 534.018 51.4493 533.667 52.3333 533.667H55.2417C56.0531 533.667 56.8365 533.963 57.445 534.5" stroke="white" stroke-width="2.5" stroke-linecap="round" stroke-linejoin="round"/>
<rect x="20" y="612" width="335" height="98" rx="16" fill="#FF7700"/>
<path d="M108.908 633.771C108.908 635.275 109.783 636.725 111.752 637.34L110.822 638.693C109.503 638.256 108.58 637.408 108.047 636.314C107.507 637.572 106.543 638.557 105.121 639.035L104.178 637.668C106.256 636.971 107.145 635.316 107.158 633.607V632.473H108.908V633.771ZM114.24 631.816V634.729H115.922V636.178H114.24V639.199H112.49V631.816H114.24ZM110.166 639.445C112.736 639.445 114.363 640.334 114.363 641.852C114.363 643.383 112.736 644.258 110.166 644.258C107.541 644.258 105.9 643.383 105.9 641.852C105.9 640.334 107.541 639.445 110.166 639.445ZM110.166 640.812C108.525 640.812 107.637 641.168 107.65 641.852C107.637 642.562 108.525 642.891 110.166 642.891C111.779 642.891 112.641 642.562 112.641 641.852C112.641 641.168 111.779 640.812 110.166 640.812ZM126.27 631.816V634.619H127.951V636.055H126.27V638.803H124.52V631.816H126.27ZM122.428 632.596V633.977H118.627V636.943C120.876 636.93 122.114 636.848 123.508 636.561L123.686 637.928C122.127 638.283 120.692 638.338 117.93 638.338H116.877V632.596H122.428ZM126.27 639.322V644.107H118.135V639.322H126.27ZM119.858 640.703V642.74H124.547V640.703H119.858ZM135.126 632.186C137.013 632.186 138.448 633.361 138.448 635.029C138.448 636.67 137.013 637.859 135.126 637.859C133.198 637.859 131.776 636.67 131.776 635.029C131.776 633.361 133.198 632.186 135.126 632.186ZM135.126 633.607C134.169 633.607 133.458 634.127 133.472 635.029C133.458 635.918 134.169 636.451 135.126 636.451C136.069 636.451 136.767 635.918 136.767 635.029C136.767 634.127 136.069 633.607 135.126 633.607ZM142.003 631.816V638.051H140.253V631.816H142.003ZM142.003 638.57V641.947H135.386V642.754H142.345V644.121H133.677V640.676H140.267V639.91H133.649V638.57H142.003ZM154.101 631.816V639.199H152.365V636.26H150.423V634.852H152.365V631.816H154.101ZM149.849 639.473C152.501 639.486 154.128 640.361 154.142 641.879C154.128 643.383 152.501 644.271 149.849 644.271C147.197 644.271 145.57 643.383 145.57 641.879C145.57 640.361 147.197 639.486 149.849 639.473ZM149.849 640.812C148.195 640.812 147.306 641.154 147.306 641.879C147.306 642.59 148.195 642.945 149.849 642.945C151.503 642.945 152.406 642.59 152.406 641.879C152.406 641.154 151.503 640.812 149.849 640.812ZM150.792 632.568V633.963H148.318C148.359 635.412 149.234 636.875 151.175 637.518L150.314 638.885C148.94 638.44 147.996 637.538 147.456 636.41C146.903 637.682 145.911 638.707 144.435 639.213L143.533 637.832C145.576 637.148 146.492 635.521 146.54 633.963H144.038V632.568H150.792ZM169.588 631.816V644.258H167.92V631.816H169.588ZM167.045 631.994V643.684H165.404V639.828H163.941C163.476 641.038 162.663 641.729 161.617 641.729C159.976 641.729 158.91 640.006 158.91 637.203C158.91 634.414 159.976 632.705 161.617 632.705C162.656 632.705 163.47 633.382 163.941 634.578H165.404V631.994H167.045ZM161.617 634.346C160.893 634.346 160.482 635.303 160.496 637.203C160.482 639.117 160.893 640.061 161.617 640.047C162.342 640.061 162.779 639.117 162.779 637.203C162.779 635.303 162.328 634.346 161.617 634.346ZM164.283 635.973C164.338 636.355 164.365 636.766 164.365 637.203C164.365 637.634 164.338 638.044 164.283 638.42H165.404V635.973H164.283ZM182.315 633.457V634.865H180.701V636.137H182.315V637.586H180.701V639.158H178.951V631.816H180.701V633.457H182.315ZM180.701 639.65V644.258H178.951V641.059H172.321V639.65H180.701ZM174.33 632.5C176.258 632.486 177.721 633.771 177.721 635.521C177.721 637.312 176.258 638.57 174.33 638.57C172.389 638.57 170.912 637.312 170.912 635.521C170.912 633.771 172.389 632.486 174.33 632.5ZM174.33 633.99C173.346 633.99 172.621 634.551 172.635 635.521C172.621 636.52 173.346 637.094 174.33 637.094C175.287 637.094 176.012 636.52 176.026 635.521C176.012 634.551 175.287 633.99 174.33 633.99Z" fill="white"/>
<path d="M113.879 664.742V665.471H104.495V664.742H108.741V663.538H105.687V660.136H112.71V660.865H106.578V662.798H112.78V663.538H109.621V664.742H113.879ZM109.181 666.223C111.391 666.223 112.71 666.894 112.722 668.074C112.71 669.266 111.391 669.926 109.181 669.937C106.959 669.926 105.629 669.266 105.629 668.074C105.629 666.894 106.959 666.223 109.181 666.223ZM109.181 666.94C107.526 666.94 106.543 667.368 106.554 668.074C106.543 668.792 107.526 669.208 109.181 669.208C110.813 669.208 111.808 668.792 111.808 668.074C111.808 667.368 110.813 666.94 109.181 666.94ZM118.332 662.416C118.321 664.291 119.605 666.188 121.121 666.871L120.566 667.588C119.397 667.016 118.385 665.806 117.893 664.337C117.413 665.893 116.4 667.189 115.197 667.797L114.618 667.033C116.146 666.327 117.418 664.372 117.43 662.416V660.541H118.332V662.416ZM123.158 659.65V669.96H122.244V659.65H123.158ZM133.675 659.65V669.937H132.795V659.65H133.675ZM131.603 659.87V669.417H130.735V664.418H129.416C129.318 666.42 128.467 667.669 127.195 667.669C125.852 667.669 124.985 666.281 124.985 664.094C124.985 661.907 125.852 660.518 127.195 660.518C128.444 660.518 129.289 661.727 129.405 663.666H130.735V659.87H131.603ZM127.195 661.375C126.362 661.375 125.829 662.416 125.841 664.094C125.829 665.76 126.362 666.813 127.195 666.801C128.028 666.813 128.56 665.76 128.56 664.094C128.56 662.416 128.028 661.375 127.195 661.375ZM145.995 659.65V661.976H147.546V662.74H145.995V664.927H145.093V659.65H145.995ZM143.149 660.333V664.522H138.393V660.333H143.149ZM139.284 661.074V663.793H142.269V661.074H139.284ZM139.932 665.853V668.907C140.528 668.89 141.32 668.803 142.049 668.56L142.188 669.289C141.181 669.625 140.209 669.66 139.538 669.66H139.052V665.853H139.932ZM147.025 665.957V666.651H141.829V665.957H143.993V665.043H144.884V665.957H147.025ZM144.421 667.021C145.544 667.033 146.342 667.577 146.354 668.468C146.342 669.359 145.544 669.914 144.421 669.914C143.287 669.914 142.501 669.359 142.512 668.468C142.501 667.577 143.287 667.033 144.421 667.021ZM144.421 667.669C143.785 667.669 143.322 667.982 143.322 668.468C143.322 668.954 143.785 669.278 144.421 669.266C145.069 669.278 145.521 668.954 145.521 668.468C145.521 667.982 145.069 667.669 144.421 667.669ZM157.507 665.077V665.818H148.134V665.077H157.507ZM156.466 668.954V669.717H149.349V666.72H150.263V668.954H156.466ZM152.821 660.021C155.031 660.009 156.454 660.773 156.454 662.057C156.454 663.342 155.031 664.105 152.821 664.105C150.587 664.105 149.176 663.342 149.176 662.057C149.176 660.773 150.587 660.009 152.821 660.021ZM152.821 660.75C151.166 660.75 150.101 661.247 150.113 662.057C150.101 662.867 151.166 663.365 152.821 663.365C154.464 663.365 155.528 662.867 155.528 662.057C155.528 661.247 154.464 660.75 152.821 660.75ZM167.386 660.761V661.502H161.253V660.761H163.868V659.604H164.771V660.761H167.386ZM164.32 662.034C165.801 662.046 166.784 662.763 166.796 663.897C166.784 665.02 165.801 665.748 164.32 665.748C162.839 665.748 161.832 665.02 161.844 663.897C161.832 662.763 162.839 662.046 164.32 662.034ZM164.32 662.74C163.348 662.752 162.7 663.203 162.711 663.897C162.7 664.58 163.348 665.02 164.32 665.02C165.28 665.02 165.928 664.58 165.94 663.897C165.928 663.203 165.28 662.752 164.32 662.74ZM169.272 659.65V662.509H170.823V663.272H169.272V666.084H168.37V659.65H169.272ZM169.272 666.651V669.937H168.37V667.392H162.538V666.651H169.272ZM174.478 661.699C174.478 662.833 175.276 663.99 176.595 664.487L176.121 665.181C175.132 664.8 174.42 664.065 174.05 663.18C173.668 664.163 172.933 665.037 171.921 665.471L171.423 664.765C172.777 664.175 173.61 662.844 173.61 661.699V660.298H174.478V661.699ZM180.148 659.662V666.015H179.28V663.18H177.915V665.691H177.058V659.859H177.915V662.428H179.28V659.662H180.148ZM176.746 666.246C178.875 666.246 180.206 666.917 180.206 668.086C180.206 669.243 178.875 669.914 176.746 669.914C174.605 669.914 173.286 669.243 173.298 668.086C173.286 666.917 174.605 666.246 176.746 666.246ZM176.746 666.94C175.172 666.94 174.189 667.368 174.2 668.086C174.189 668.792 175.172 669.208 176.746 669.208C178.308 669.208 179.292 668.792 179.303 668.086C179.292 667.368 178.308 666.94 176.746 666.94ZM187.297 660.796V661.328C187.286 662.138 187.286 663.504 186.997 665.413L186.082 665.332C186.36 663.608 186.383 662.358 186.383 661.537H182.067V660.796H187.297ZM184.601 663.735V666.859C185.741 666.819 186.91 666.744 187.98 666.616L188.026 667.299C185.863 667.635 183.444 667.681 181.604 667.669L181.489 666.917C182.166 666.911 182.918 666.906 183.71 666.882V663.735H184.601ZM189.531 659.65V663.955H191.197V664.742H189.531V669.937H188.628V659.65H189.531ZM195.141 660.403C196.761 660.403 197.907 661.386 197.907 662.821C197.907 664.256 196.761 665.239 195.141 665.239C193.521 665.239 192.353 664.256 192.364 662.821C192.353 661.386 193.521 660.403 195.141 660.403ZM195.141 661.201C194.042 661.201 193.244 661.861 193.255 662.821C193.244 663.781 194.042 664.441 195.141 664.441C196.229 664.441 197.016 663.781 197.016 662.821C197.016 661.861 196.229 661.201 195.141 661.201ZM200.21 659.65V669.96H199.307V659.65H200.21ZM191.832 666.917C193.73 666.917 196.345 666.906 198.624 666.57L198.694 667.241C196.345 667.681 193.811 667.692 191.959 667.692L191.832 666.917ZM107.931 680.317C107.931 681.717 108.996 683.001 110.489 683.51L109.991 684.228C108.851 683.811 107.954 682.961 107.503 681.89C107.063 683.1 106.149 684.054 104.946 684.517L104.46 683.788C105.999 683.21 107.029 681.833 107.04 680.247V679.183H107.931V680.317ZM112.537 678.65V681.335H114.087V682.099H112.537V684.91H111.634V678.65H112.537ZM109.239 685.177C111.356 685.177 112.629 685.859 112.629 687.04C112.629 688.243 111.356 688.914 109.239 688.914C107.121 688.914 105.825 688.243 105.825 687.04C105.825 685.859 107.121 685.177 109.239 685.177ZM109.239 685.906C107.688 685.906 106.728 686.334 106.74 687.04C106.728 687.769 107.688 688.185 109.239 688.197C110.801 688.185 111.75 687.769 111.75 687.04C111.75 686.334 110.801 685.906 109.239 685.906ZM122.718 678.65V681.173H124.269V681.937H122.718V684.494H121.815V678.65H122.718ZM119.721 679.356V680.097H116.065V683.129C118.13 683.14 119.304 683.065 120.681 682.793L120.797 683.534C119.351 683.823 118.124 683.881 115.96 683.881H115.162V679.356H119.721ZM122.718 685.026V688.798H116.227V685.026H122.718ZM117.118 685.767V688.058H121.815V685.767H117.118ZM130.688 679.032C132.227 679.044 133.349 679.97 133.349 681.312C133.349 682.654 132.227 683.58 130.688 683.58C129.126 683.58 128.015 682.654 128.015 681.312C128.015 679.97 129.126 679.044 130.688 679.032ZM130.688 679.796C129.658 679.796 128.894 680.421 128.906 681.312C128.894 682.214 129.658 682.839 130.688 682.839C131.706 682.839 132.47 682.214 132.47 681.312C132.47 680.421 131.706 679.796 130.688 679.796ZM136.265 678.65V683.939H135.363V678.65H136.265ZM136.265 684.436V686.912H130.491V688.069H136.635V688.798H129.6V686.23H135.363V685.165H129.577V684.436H136.265ZM146.481 678.65V684.783H145.567V682.087H143.496V681.335H145.567V678.65H146.481ZM143.068 685.107C145.208 685.107 146.516 685.801 146.516 687.016C146.516 688.231 145.208 688.926 143.068 688.937C140.927 688.926 139.619 688.231 139.619 687.016C139.619 685.801 140.927 685.107 143.068 685.107ZM143.068 685.813C141.494 685.813 140.51 686.264 140.522 687.016C140.51 687.757 141.494 688.208 143.068 688.208C144.641 688.208 145.613 687.757 145.613 687.016C145.613 686.264 144.641 685.813 143.068 685.813ZM141.529 680.537C141.529 681.879 142.558 683.152 144.063 683.672L143.588 684.401C142.431 683.985 141.534 683.123 141.1 682.052C140.649 683.262 139.695 684.228 138.474 684.691L137.999 683.962C139.527 683.406 140.614 682.018 140.614 680.548V680.166H138.289V679.403H143.831V680.166H141.529V680.537ZM152.821 678.836C155.112 678.836 156.454 679.46 156.454 680.606C156.454 681.775 155.112 682.4 152.821 682.411C150.53 682.4 149.176 681.775 149.176 680.606C149.176 679.46 150.53 678.836 152.821 678.836ZM152.821 679.518C151.108 679.518 150.113 679.935 150.125 680.606C150.113 681.323 151.108 681.717 152.821 681.717C154.522 681.717 155.528 681.323 155.528 680.606C155.528 679.935 154.522 679.518 152.821 679.518ZM157.507 683.105V683.846H148.134V683.105H157.507ZM156.304 684.737V687.04H150.194V688.104H156.616V688.822H149.292V686.368H155.413V685.431H149.268V684.737H156.304ZM170.036 678.65V688.937H169.168V678.65H170.036ZM167.953 678.928V688.417H167.085V684.853H165.176V684.1H167.085V682.272H165.35C164.846 684.014 163.718 685.553 161.774 686.716L161.219 686.056C163.458 684.731 164.58 682.874 164.759 680.722H161.682V679.97H165.662C165.662 680.496 165.616 681.017 165.523 681.52H167.085V678.928H167.953ZM177.88 679.599V680.294H171.805V679.599H174.385V678.593H175.288V679.599H177.88ZM174.848 680.687C176.318 680.687 177.301 681.277 177.313 682.226C177.301 683.065 176.509 683.62 175.288 683.719V684.401C176.248 684.361 177.22 684.286 178.123 684.158L178.192 684.806C175.936 685.177 173.448 685.211 171.597 685.211L171.458 684.482C172.331 684.482 173.338 684.477 174.385 684.436V683.719C173.159 683.615 172.384 683.065 172.395 682.226C172.384 681.277 173.355 680.687 174.848 680.687ZM174.848 681.335C173.888 681.323 173.251 681.671 173.251 682.226C173.251 682.758 173.888 683.105 174.848 683.094C175.797 683.105 176.433 682.758 176.433 682.226C176.433 681.671 175.797 681.323 174.848 681.335ZM179.893 678.685V685.535H178.979V678.685H179.893ZM179.893 686.021V688.937H178.979V686.75H172.95V686.021H179.893ZM186.73 680.432V681.173H181.57V680.432H183.71V678.963H184.613V680.432H186.73ZM184.15 681.867C185.446 681.867 186.372 682.839 186.383 684.205C186.372 685.582 185.446 686.565 184.15 686.565C182.866 686.565 181.94 685.582 181.94 684.205C181.94 682.839 182.866 681.867 184.15 681.867ZM184.15 682.631C183.34 682.643 182.75 683.302 182.75 684.205C182.75 685.119 183.34 685.778 184.15 685.767C184.972 685.778 185.573 685.119 185.573 684.205C185.573 683.302 184.972 682.643 184.15 682.631ZM190.352 678.65V688.937H189.484V683.742H188.119V688.428H187.263V678.905H188.119V682.99H189.484V678.65H190.352ZM194.528 679.449C196.044 679.46 197.12 680.849 197.132 683.036C197.12 685.223 196.044 686.611 194.528 686.611C193.001 686.611 191.936 685.223 191.936 683.036C191.936 680.849 193.001 679.46 194.528 679.449ZM194.528 680.259C193.51 680.27 192.792 681.358 192.792 683.036C192.792 684.714 193.51 685.801 194.528 685.801C195.558 685.801 196.252 684.714 196.252 683.036C196.252 681.358 195.558 680.27 194.528 680.259ZM201.401 681.242V682.018H199.735V684.309H201.401V685.072H199.735V688.937H198.833V678.65H199.735V681.242H201.401ZM212.912 678.616V681.115H214.474V681.867H212.912V684.309H212.009V678.616H212.912ZM212.912 684.841V687.121H207.265V688.127H213.294V688.822H206.374V686.449H212.009V685.524H206.351V684.841H212.912ZM211.026 679.588V680.317H204.893V679.588H207.508V678.546H208.411V679.588H211.026ZM207.959 680.78C209.452 680.78 210.424 681.428 210.436 682.469C210.424 683.51 209.452 684.158 207.959 684.158C206.455 684.158 205.472 683.51 205.483 682.469C205.472 681.428 206.455 680.78 207.959 680.78ZM207.959 681.451C206.987 681.451 206.339 681.856 206.351 682.469C206.339 683.094 206.987 683.476 207.959 683.476C208.931 683.476 209.568 683.094 209.579 682.469C209.568 681.856 208.931 681.451 207.959 681.451ZM224.781 678.882V682.862H226.031V678.65H226.899V688.937H226.031V683.615H224.781V688.428H223.937V678.882H224.781ZM220.511 679.958V680.71H219.123V685.477C219.511 685.466 220.02 685.42 220.581 685.281L220.662 686.056C219.794 686.253 219.123 686.253 218.683 686.253H218.278V679.958H220.511ZM223.242 679.958V680.71H221.784V685.477C222.264 685.472 222.837 685.425 223.462 685.246L223.543 686.021C222.687 686.253 221.981 686.253 221.379 686.253H220.963V679.958H223.242Z" fill="#FFF5EB"/>
<path d="M76.5054 662.25C76.5054 659.778 75.7723 657.361 74.3988 655.305C73.0252 653.25 71.073 651.648 68.7889 650.702C66.5049 649.755 63.9915 649.508 61.5668 649.99C59.142 650.472 56.9147 651.663 55.1666 653.411C53.4184 655.159 52.2279 657.387 51.7456 659.811C51.2633 662.236 51.5108 664.749 52.4569 667.034C53.403 669.318 55.0051 671.27 57.0608 672.643C59.1164 674.017 61.5331 674.75 64.0054 674.75C67.3206 674.75 70.5 673.433 72.8442 671.089C75.1884 668.745 76.5054 665.565 76.5054 662.25ZM55.103 648.126C54.4471 647.564 53.6132 647.254 52.7499 647.25L52.5319 647.256C50.5359 647.377 48.9999 649.125 49.0054 651.234C49.0054 652.266 49.3694 652.748 49.8554 653.362C49.8856 653.401 49.9237 653.434 49.9673 653.458C50.0109 653.482 50.059 653.496 50.1085 653.5H50.1773C50.216 653.499 50.254 653.49 50.2884 653.472C50.3228 653.454 50.3527 653.429 50.3757 653.398L55.1234 648.734C55.1639 648.693 55.1956 648.644 55.2164 648.591C55.2372 648.537 55.2468 648.479 55.2444 648.422C55.2425 648.365 55.2289 648.31 55.2046 648.259C55.1803 648.208 55.1457 648.163 55.103 648.126ZM72.8968 648.126C73.5527 647.564 74.3866 647.254 75.2499 647.25L75.4679 647.256C77.464 647.377 78.9999 649.125 78.9944 651.234C78.9944 652.266 78.6304 652.748 78.1444 653.362C78.1142 653.401 78.076 653.434 78.0324 653.457C77.9888 653.481 77.9408 653.495 77.8913 653.499H77.8226C77.7839 653.499 77.7458 653.489 77.7114 653.471C77.677 653.453 77.6471 653.428 77.6241 653.397L72.8765 648.734C72.8359 648.693 72.8043 648.644 72.7834 648.591C72.7626 648.537 72.7531 648.479 72.7554 648.422C72.7574 648.365 72.7709 648.31 72.7953 648.259C72.8196 648.208 72.8541 648.163 72.8968 648.126Z" stroke="#F5F5F5" stroke-width="2.5" stroke-miterlimit="10"/>
<path d="M64.0059 653.5V662.25H57.7559M76.5059 674.75L73.3809 671.625M51.5059 674.75L54.6309 671.625" stroke="#F5F5F5" stroke-width="2.5" stroke-linecap="round" stroke-linejoin="round"/>
</svg>
